<svg id="_2353403" data-name="2353403" xmlns="http://www.w3.org/2000/svg" width="69.885" height="93.349" viewBox="0 0 69.885 93.349">
  <g id="_fe810dff" data-name="#fe810dff" transform="translate(16.123)">
    <path id="Path_27364" data-name="Path 27364" d="M169.143,0h.625q.005,8.207,0,16.413c-5.38-.013-10.76.007-16.138-.009a2.725,2.725,0,0,1-2.619-2.21c-.12-1.079-.025-2.17-.054-3.254q0-2.735,0-5.47c3.751-.013,7.5.024,11.252-.016A8.2,8.2,0,0,1,169.143,0Z" transform="translate(-150.951)" fill="#fe810d"/>
  </g>
  <g id="_ff495aff" data-name="#ff495aff" transform="translate(34.94)">
    <path id="Path_27365" data-name="Path 27365" d="M255.99,0h1.324c.641.255,1.326.388,1.953.684a8.129,8.129,0,0,1,4.3,4.762c3.746.055,7.492.007,11.238.024q0,2.735,0,5.47c-.013.975.02,1.951,0,2.926a2.663,2.663,0,0,1-2.673,2.547q-8.067-.008-16.134,0Q255.992,8.208,255.99,0Z" transform="translate(-255.99)" fill="#ff495a"/>
  </g>
  <g id="_596c76ff" data-name="#596c76ff" transform="translate(0 5.469)">
    <path id="Path_27366" data-name="Path 27366" d="M60.96,32.906A2.75,2.75,0,0,1,63.635,30c4.484-.009,8.966,0,13.45,0q0,2.735,0,5.47c-3.583,0-7.164,0-10.747,0q0,38.468,0,76.934,14.777.011,29.552,0c.011,1.823,0,3.646.005,5.471H63.02a2.983,2.983,0,0,1-2.055-2.72Q60.95,74.03,60.96,32.906Z" transform="translate(-60.954 -29.997)" fill="#596c76"/>
  </g>
  <g id="_465a61ff" data-name="#465a61ff" transform="translate(34.937 5.466)">
    <path id="Path_27367" data-name="Path 27367" d="M274.786,29.984q6.723,0,13.447,0a2.631,2.631,0,0,1,2.426,1.531,5.181,5.181,0,0,1,.253,2.3q-.008,40.754-.005,81.509a2.868,2.868,0,0,1-2.039,2.542H255.975c0-1.825.005-3.648-.005-5.471q14.783.005,29.563,0,0-38.468,0-76.936c-3.583-.005-7.164,0-10.747,0Q274.783,32.719,274.786,29.984Z" transform="translate(-255.97 -29.981)" fill="#465a61"/>
  </g>
  <g id="_f2f2f2ff" data-name="#f2f2f2ff" transform="translate(5.382 10.939)">
    <path id="Path_27368" data-name="Path 27368" d="M91,60c3.583-.005,7.164,0,10.747,0,.029,1.085-.066,2.175.054,3.254a2.725,2.725,0,0,0,2.619,2.21c5.378.016,10.758,0,16.138.009,0,5.528.009,11.054-.005,16.58a21.309,21.309,0,0,0-13.5,4.868,21.992,21.992,0,0,0-7.6,12.845,22.412,22.412,0,0,0,.844,11.488,21.873,21.873,0,0,0,9.638,11.7,21.263,21.263,0,0,0,10.62,2.873q.019,5.557,0,11.112-14.774,0-29.552,0Q91,98.468,91,60Z" transform="translate(-90.998 -59.996)" fill="#f2f2f2"/>
    <path id="Path_27369" data-name="Path 27369" d="M197.289,288.313a2.647,2.647,0,0,1,3.9-.3c1.184,1.183,2.363,2.374,3.517,3.588.883-.737,1.645-1.613,2.453-2.432a2.326,2.326,0,0,1,.183.983c-.029,2.193.013,4.389-.02,6.582l-.005.153c-.6.416-1.089,1.054-1.829,1.227a2.674,2.674,0,0,1-2.616-.687q-2.693-2.724-5.371-5.462A2.8,2.8,0,0,1,197.289,288.313Z" transform="translate(-177.774 -245.85)" fill="#f2f2f2"/>
  </g>
  <g id="_daedffff" data-name="#daedffff" transform="translate(34.768 10.939)">
    <path id="Path_27370" data-name="Path 27370" d="M274.778,60c3.583,0,7.164,0,10.747,0q.005,38.468,0,76.936-14.782.005-29.563,0,.011-5.557,0-11.112a21.117,21.117,0,0,0,13.115-4.527,21.953,21.953,0,0,0,7.951-12.872,22.312,22.312,0,0,0-.738-11.67,21.824,21.824,0,0,0-10.48-12.294,21.092,21.092,0,0,0-9.846-2.408c.014-5.526,0-11.052.005-16.58q8.067-.011,16.134,0a2.663,2.663,0,0,0,2.673-2.547C274.8,61.948,274.765,60.972,274.778,60Z" transform="translate(-255.793 -59.996)" fill="#daedff"/>
    <path id="Path_27371" data-name="Path 27371" d="M261.614,257.777a2.691,2.691,0,0,1,4.013.552,2.837,2.837,0,0,1-.353,3.537l-8.508,8.666a18.391,18.391,0,0,1-1.573,1.524c.032-2.193-.009-4.388.02-6.582a2.326,2.326,0,0,0-.183-.983c.05-.062.154-.184.2-.246C257.373,262.1,259.473,259.917,261.614,257.777Z" transform="translate(-255.03 -221.175)" fill="#daedff"/>
  </g>
  <g id="_64e0dbff" data-name="#64e0dbff" transform="translate(13.447 32.993)">
    <path id="Path_27372" data-name="Path 27372" d="M144,185.828a21.31,21.31,0,0,1,13.5-4.868c.034,7-.039,14.011.036,21.016-.05.062-.154.184-.2.246-.808.819-1.569,1.7-2.453,2.432-1.154-1.214-2.332-2.4-3.517-3.588a2.647,2.647,0,0,0-3.9.3,2.8,2.8,0,0,0,.213,3.648q2.679,2.735,5.371,5.462a2.674,2.674,0,0,0,2.616.687c.74-.173,1.225-.811,1.829-1.227.03,4.93.016,9.862.009,14.792a21.262,21.262,0,0,1-10.62-2.873,21.873,21.873,0,0,1-9.638-11.7,22.412,22.412,0,0,1-.844-11.488A21.993,21.993,0,0,1,144,185.828Z" transform="translate(-136.012 -180.96)" fill="#64e0db"/>
  </g>
  <g id="_00c7c7ff" data-name="#00c7c7ff" transform="translate(34.926 32.992)">
    <path id="Path_27373" data-name="Path 27373" d="M255.921,180.956a21.093,21.093,0,0,1,9.846,2.408,21.824,21.824,0,0,1,10.48,12.294,22.312,22.312,0,0,1,.738,11.67,21.953,21.953,0,0,1-7.951,12.872,21.117,21.117,0,0,1-13.116,4.527c.007-4.93.022-9.862-.009-14.792l.005-.153a18.387,18.387,0,0,0,1.573-1.524L266,199.593a2.837,2.837,0,0,0,.353-3.537,2.691,2.691,0,0,0-4.013-.552c-2.141,2.14-4.241,4.326-6.38,6.469C255.881,194.968,255.955,187.961,255.921,180.956Z" transform="translate(-255.91 -180.956)" fill="#00c7c7"/>
  </g>
</svg>
