<svg xmlns="http://www.w3.org/2000/svg" width="74.938" height="88.709" viewBox="0 0 74.938 88.709">
  <g id="_7303490" data-name="7303490" transform="translate(0 0)">
    <g id="_76bff7ff" data-name="#76bff7ff" transform="translate(0 0)">
      <path id="Path_27356" data-name="Path 27356" d="M147.394,65.228c3.269-.047,6.538-.007,9.8-.02.555,1.313,1.093,2.633,1.652,3.941a1.907,1.907,0,0,0,1.89,1.193c4.372,0,8.747,0,13.12,0a1.867,1.867,0,0,0,1.748-1.128c.557-1.324,1.068-2.671,1.61-4,3.1.018,6.2-.032,9.3.023a7.544,7.544,0,0,1,6.92,6.947c.075,2.151.009,4.305.036,6.459-8.832.011-17.663-.009-26.492.009a11.179,11.179,0,0,0-7.686,3.087,11.86,11.86,0,0,0-3.562,9.406c.007,11.37-.011,22.74.009,34.108a11.462,11.462,0,0,0,6.7,10.29,10.984,10.984,0,0,0,4.512.963q13.257.007,26.515,0c-.007,3.338.013,6.678-.009,10.016a7.623,7.623,0,0,1-4.828,6.9,7.949,7.949,0,0,1-3,.493c-12.649-.009-25.3.011-37.951-.011a7.568,7.568,0,0,1-7.259-7.451q-.01-36.927,0-73.852a7.555,7.555,0,0,1,6.971-7.37m13.437,81.859A1.94,1.94,0,0,0,159.772,149a1.914,1.914,0,0,0,1.865,1.745c3.777.014,7.555.007,11.332,0a1.927,1.927,0,1,0,0-3.853c-3.626-.014-7.255,0-10.881-.009A2.736,2.736,0,0,0,160.831,147.087Z" transform="translate(-140.413 -65.204)" fill="#869ca8"/>
      <path id="Path_27357" data-name="Path 27357" d="M234.59,65.21q5.9.007,11.8,0c-.173.423-.342.843-.509,1.266-3.591.014-7.182,0-10.77.007Q234.849,65.847,234.59,65.21Z" transform="translate(-213.676 -65.209)" fill="#869ca8"/>
      <path id="Path_27358" data-name="Path 27358" d="M253.12,200.937a1.887,1.887,0,0,1,1.9-1.451c1.55.011,3.1-.036,4.654.025,1.121.133,1.548,1.306,1.894,2.235.1.484.68.348,1.035.364,3.335-.025,6.673.018,10.011.016.633,1.2,1.368,2.344,1.992,3.548-.315,1.22-.562,2.457-.844,3.684a2,2,0,0,0,1.137,2.328c1.29.495,2.7.64,3.968,1.175.831,1.064,1.4,2.316,2.205,3.4a2.165,2.165,0,0,0,1.252.753,2.09,2.09,0,0,1-1.757,1.688c-5.858.052-11.718-.025-17.574.029a1.026,1.026,0,0,0-.244.994c.215.33.608.323.955.328q7.551-.007,15.107,0a1.906,1.906,0,1,1-.013,3.81q-7.658.01-15.316,0a4.444,4.444,0,0,1-3.227-1.3,4.512,4.512,0,0,1-1.137-4.407,4.317,4.317,0,0,1,3.931-3.184,27.433,27.433,0,0,0-1.088-2.73c-1.244-2.976-2.556-5.928-3.757-8.922-1.206-.068-2.414.047-3.615-.061A1.912,1.912,0,0,1,253.12,200.937Z" transform="translate(-228.047 -169.133)" fill="#869ca8"/>
      <path id="Path_27359" data-name="Path 27359" d="M383.7,204.66a1.855,1.855,0,0,1,2.734.208,1.958,1.958,0,0,1-.187,2.613c-1.332,1.358-2.658,2.726-4.006,4.066a1.839,1.839,0,0,1-2.383.215c-.577-.452-1.042-1.028-1.57-1.532a2.675,2.675,0,0,1-1.061-1.815,1.9,1.9,0,0,1,1.95-1.991,2.585,2.585,0,0,1,1.757,1.033C381.861,206.533,382.755,205.57,383.7,204.66Z" transform="translate(-324.633 -172.752)" fill="#fff"/>
      <path id="Path_27360" data-name="Path 27360" d="M294.9,313.282a2.544,2.544,0,0,1,2.967,3.234,2.493,2.493,0,0,1-3.973,1.191A2.592,2.592,0,0,1,294.9,313.282Z" transform="translate(-259.139 -257.152)" fill="#869ca8"/>
      <path id="Path_27361" data-name="Path 27361" d="M351.685,313.268a2.546,2.546,0,0,1,2.889,3.413,2.487,2.487,0,0,1-4.246.671A2.569,2.569,0,0,1,351.685,313.268Z" transform="translate(-303.269 -257.143)" fill="#869ca8"/>
    </g>
    <g id="_ffc400ff" data-name="#ffc400ff" transform="translate(18.087 16.12)">
      <path id="Path_27362" data-name="Path 27362" d="M228.452,136.8a9.42,9.42,0,0,1,2.305-.26q19.549,0,39.1,0a8.641,8.641,0,0,1,6.045,2.326,8.965,8.965,0,0,1,2.811,6.59q.007,17.4,0,34.813a8.988,8.988,0,0,1-2.141,5.948,8.665,8.665,0,0,1-6.715,3.037q-19.316.01-38.633,0a9.51,9.51,0,0,1-4.137-.748,8.9,8.9,0,0,1-5.216-8.021q-.01-17.631,0-35.26a8.839,8.839,0,0,1,6.582-8.427m34.4,5.614c-1.179.61-2.276,1.376-3.449,1.991-1.421-.149-2.791-.66-4.213-.832a1.889,1.889,0,0,0-1.859,1.4c-.371,1.266-.646,2.558-1.017,3.824-1.088.723-2.2,1.406-3.284,2.138a2.06,2.06,0,0,0-.688,2.472c-3.338,0-6.675-.041-10.011-.016-.355-.016-.937.12-1.035-.364-.346-.929-.773-2.1-1.894-2.235-1.55-.061-3.1-.014-4.654-.025a1.887,1.887,0,0,0-1.9,1.451,1.912,1.912,0,0,0,1.472,2.321c1.2.108,2.409-.007,3.615.061,1.2,2.994,2.514,5.946,3.757,8.922a27.44,27.44,0,0,1,1.088,2.73,4.317,4.317,0,0,0-3.93,3.184,4.512,4.512,0,0,0,1.137,4.407,4.444,4.444,0,0,0,3.227,1.3q7.658,0,15.316,0a1.906,1.906,0,1,0,.013-3.81q-7.555,0-15.107,0c-.346,0-.739,0-.955-.328a1.026,1.026,0,0,1,.244-.994c5.856-.054,11.716.023,17.574-.029a2.09,2.09,0,0,0,1.757-1.688,3.256,3.256,0,0,0,1.426-.436q1.549-.905,3.084-1.833c1.319.237,2.611.61,3.933.843a1.844,1.844,0,0,0,2.059-1.245c.369-1.189.631-2.411.968-3.609a.673.673,0,0,1,.34-.49c1.024-.7,2.112-1.313,3.118-2.043a1.923,1.923,0,0,0,.544-2.418c-.624-1.177-1.31-2.316-1.961-3.476.251-1.365.624-2.705.851-4.075a1.9,1.9,0,0,0-1.4-2.061c-1.221-.357-2.454-.674-3.684-1-.766-1.116-1.419-2.307-2.181-3.424a1.842,1.842,0,0,0-2.3-.615m-23.315,34.135a2.592,2.592,0,0,0-1.006,4.425,2.493,2.493,0,0,0,3.973-1.191,2.544,2.544,0,0,0-2.967-3.234m12.651,0a2.569,2.569,0,0,0-1.357,4.084,2.487,2.487,0,0,0,4.246-.671A2.546,2.546,0,0,0,252.191,176.539Z" transform="translate(-221.861 -136.534)" fill="#64e0db"/>
    </g>
    <g id="_8bc53fff" data-name="#8bc53fff" transform="translate(44.415 21.816)">
      <path id="Path_27363" data-name="Path 27363" d="M355.088,161.915a1.842,1.842,0,0,1,2.3.615c.762,1.116,1.415,2.307,2.181,3.424,1.23.33,2.463.646,3.684,1a1.9,1.9,0,0,1,1.4,2.061c-.227,1.37-.6,2.71-.85,4.075.651,1.159,1.337,2.3,1.961,3.476a1.923,1.923,0,0,1-.544,2.418c-1.006.73-2.094,1.34-3.118,2.043a.673.673,0,0,0-.34.49c-.338,1.2-.6,2.42-.968,3.609a1.844,1.844,0,0,1-2.059,1.245c-1.321-.233-2.614-.606-3.933-.843q-1.536.929-3.084,1.833a3.256,3.256,0,0,1-1.426.436,2.164,2.164,0,0,1-1.252-.753c-.8-1.085-1.375-2.337-2.205-3.4-1.272-.536-2.678-.68-3.968-1.175a2,2,0,0,1-1.137-2.328c.282-1.227.529-2.463.844-3.684-.624-1.2-1.359-2.348-1.992-3.548a2.06,2.06,0,0,1,.688-2.472c1.082-.732,2.2-1.415,3.284-2.138.371-1.266.646-2.558,1.017-3.824a1.889,1.889,0,0,1,1.859-1.4c1.421.172,2.791.683,4.213.832,1.173-.615,2.27-1.381,3.449-1.991m-.016,9.912c-.942.911-1.837,1.874-2.767,2.8a2.586,2.586,0,0,0-1.757-1.033,1.9,1.9,0,0,0-1.95,1.991,2.675,2.675,0,0,0,1.061,1.815c.529.5.993,1.08,1.57,1.532a1.839,1.839,0,0,0,2.383-.215c1.348-1.34,2.674-2.707,4.006-4.066a1.958,1.958,0,0,0,.187-2.613A1.855,1.855,0,0,0,355.072,171.827Z" transform="translate(-340.423 -161.735)" fill="#e01a1a"/>
    </g>
  </g>
</svg>
