<svg xmlns="http://www.w3.org/2000/svg" width="82.548" height="93.348" viewBox="0 0 82.548 93.348">
  <g id="_2110760" data-name="2110760" transform="translate(0)">
    <g id="_2b1505ff" data-name="#2b1505ff" transform="translate(0)">
      <path id="Path_27396" data-name="Path 27396" d="M50.021,0H87.4a9.315,9.315,0,0,1,6.22,3.1,9.691,9.691,0,0,1,2.236,4.677c3.08.005,6.161,0,9.24,0a3.064,3.064,0,0,1,2.75,1.632,6.879,6.879,0,0,1,.367,3.169,35.429,35.429,0,0,1-.075,3.625,3.187,3.187,0,0,1-2.983,2.5q0,8.513,0,17.027a6.33,6.33,0,0,1-1.526,4.157,6.033,6.033,0,0,1-4.267,2.095c-1.125.046-2.25.005-3.375.018,0,2.259,0,4.52,0,6.779a4.692,4.692,0,0,1,3.529,7.891C98.357,57.885,97.178,59.07,96,60.253c-.029,7.931.005,15.864-.016,23.795a9.429,9.429,0,0,1-3.56,7.34,9.192,9.192,0,0,1-5.314,1.96H34.6a9.26,9.26,0,0,1-8.212-5.767,9.9,9.9,0,0,1-.706-3.9q0-29.263,0-58.525a1.925,1.925,0,0,1,.563-1.488Q37.572,12.131,48.908.6A2.135,2.135,0,0,1,50.021,0m1.632,3.112c-.005,5.77.005,11.543,0,17.313a6.113,6.113,0,0,1-1.883,4.394,5.912,5.912,0,0,1-4.138,1.628q-8.454.005-16.906,0,0,1.551,0,3.1V83.86a6.311,6.311,0,0,0,1.646,4.394,6.129,6.129,0,0,0,4.687,1.984q25.977-.014,51.957-.011a6.185,6.185,0,0,0,5.907-6c.023-6.945.005-13.891.007-20.836q-7.1,7.206-14.189,14.423a5.374,5.374,0,0,1-1.686,1.408q-3.587,1.559-7.168,3.132a1.547,1.547,0,0,1-2.109-2.044c1.034-2.461,2.083-4.914,3.114-7.375a2.644,2.644,0,0,1,.566-.884q10.76-10.958,21.516-21.92c-.1-2.706-.007-5.419-.048-8.128-5.133,0-10.267.011-15.4-.005a6.132,6.132,0,0,1-5.466-3.692,7.393,7.393,0,0,1-.53-3.3q.008-8.158,0-16.314a3.138,3.138,0,0,1-3.035-2.83c-.047-1.7-.021-3.4-.014-5.1a3.075,3.075,0,0,1,2.942-2.981c7.1-.022,14.2,0,21.3-.011a6.257,6.257,0,0,0-4.058-4.365,11.393,11.393,0,0,0-3.63-.3H51.653M30.884,23.337q7.014,0,14.024,0a5.114,5.114,0,0,0,1.763-.162,2.923,2.923,0,0,0,1.924-2.746q0-7.559,0-15.12Q39.74,14.325,30.884,23.337M71.526,10.89q0,2.338,0,4.677c.389-.04.881.124,1.148-.264Q74.837,13.1,77,10.892q-2.738-.005-5.478,0m9.393.41c-1.378,1.428-2.782,2.828-4.163,4.254,1.1.009,2.195,0,3.291.009,1.541-1.548,3.067-3.109,4.6-4.669-1.01.005-2.023-.016-3.033,0-.3-.049-.491.232-.69.407m3.472,4.257q1.658,0,3.318,0Q90,13.222,92.3,10.892c-1.107,0-2.214,0-3.32,0q-2.295,2.333-4.586,4.667m7.65,0c1.113,0,2.225.015,3.338-.011,1.5-1.564,3.04-3.094,4.552-4.651-1.095-.007-2.189.005-3.284-.009C95.091,12.422,93.573,14,92.04,15.556m11.99-4.432q-2.174,2.218-4.352,4.434,2.738,0,5.478,0,0-2.338,0-4.677c-.378.046-.86-.124-1.127.242M74.58,18.677c.005,1.025,0,2.047,0,3.072.005,4.718-.014,9.437.009,14.155a3.088,3.088,0,0,0,3.112,2.99q10.647,0,21.292,0a3.087,3.087,0,0,0,3.094-2.99c.025-4.717,0-9.433.011-14.15,0-1.025,0-2.047,0-3.072q-13.761-.03-27.524,0m20.441,33.79c-.7.695-1.379,1.409-2.073,2.109q1.078,1.1,2.155,2.193c.7-.7,1.394-1.4,2.078-2.108a1.659,1.659,0,0,0,.534-1.238,1.545,1.545,0,0,0-1.41-1.508,1.594,1.594,0,0,0-1.284.551M73.79,74.093c-.668,1.253-1.125,2.616-1.711,3.911,1.215-.531,2.44-1.045,3.646-1.6a23.206,23.206,0,0,0,1.831-1.776q7.688-7.838,15.385-15.667c-.724-.72-1.433-1.457-2.152-2.181C85.123,62.551,79.437,68.3,73.79,74.093Z" transform="translate(-25.678)" fill="#2b1505"/>
      <path id="Path_27397" data-name="Path 27397" d="M333.176,121.035a3.285,3.285,0,0,1,2.021-1.521q5.216-.068,10.434,0a3.293,3.293,0,0,1,2.021,1.528,6.2,6.2,0,0,1,.4,3.094,6.278,6.278,0,0,1-.4,3.092,3.054,3.054,0,0,1-2.66,1.579q-4.576.008-9.154,0a3.061,3.061,0,0,1-2.739-1.7,6.779,6.779,0,0,1-.337-2.988,6.146,6.146,0,0,1,.41-3.09m2.65,1.553c0,1.036,0,2.069,0,3.1,3.058.02,6.114,0,9.172.009.005-1.037,0-2.075,0-3.112Z" transform="translate(-277.748 -97.696)" fill="#2b1505"/>
      <path id="Path_27398" data-name="Path 27398" d="M81.39,170.821a18.064,18.064,0,0,1,3.845-.2,6.857,6.857,0,0,1,3.4.636,6.22,6.22,0,0,1,3.418,5.264c.034,1.152.014,2.3.013,3.457a6.279,6.279,0,0,1-2.254,4.8,6.189,6.189,0,0,1-4.217,1.4,17.466,17.466,0,0,1-4.461-.27,6.2,6.2,0,0,1-4-3.9,9.9,9.9,0,0,1-.348-3.482,11.732,11.732,0,0,1,.285-3.557,6.192,6.192,0,0,1,4.325-4.161M81.672,174a3.121,3.121,0,0,0-1.831,2.892,34.076,34.076,0,0,0,.09,3.874q3.424-3.449,6.811-6.934a21.507,21.507,0,0,0-2.929-.095,4.973,4.973,0,0,0-2.141.263m4.717,4.607c-1.41,1.468-2.884,2.873-4.255,4.379a34.094,34.094,0,0,0,3.837.084,3.091,3.091,0,0,0,3.035-3.09,37.181,37.181,0,0,0-.077-3.9C88.028,176.865,87.241,177.771,86.389,178.606Z" transform="translate(-67.622 -139.511)" fill="#2b1505"/>
      <path id="Path_27399" data-name="Path 27399" d="M188.716,187.821a4.711,4.711,0,0,1,1.4-.111c1.791.022,3.583-.024,5.373.02a1.55,1.55,0,0,1-.183,3.092q-2.964.011-5.928,0a1.559,1.559,0,0,1-.666-3Z" transform="translate(-158.705 -153.487)" fill="#2b1505"/>
      <path id="Path_27400" data-name="Path 27400" d="M188.733,221.948a3.288,3.288,0,0,1,1.025-.108c3.88.013,7.759,0,11.637.007a1.554,1.554,0,1,1,.03,3.1q-6.017.011-12.033,0a1.551,1.551,0,0,1-1.473-.839A1.568,1.568,0,0,1,188.733,221.948Z" transform="translate(-158.711 -181.394)" fill="#2b1505"/>
      <path id="Path_27401" data-name="Path 27401" d="M81.718,273.167a16.4,16.4,0,0,1,2.775-.113,11.916,11.916,0,0,1,2.859.175,6.158,6.158,0,0,1,4.332,3.962,8.662,8.662,0,0,1,.358,3.145,28.219,28.219,0,0,1-.07,2.939,6.209,6.209,0,0,1-3.73,4.868c-1.695.722-3.569.4-5.349.467a6.179,6.179,0,0,1-6.046-5.158,38.878,38.878,0,0,1-.082-4.383,6.205,6.205,0,0,1,4.953-5.9m-1.63,4.817a5.475,5.475,0,0,0-.278,2.356,19.674,19.674,0,0,0,.1,2.851c2.268-2.3,4.563-4.585,6.781-6.937a33.381,33.381,0,0,0-3.819-.086,3.059,3.059,0,0,0-2.782,1.816m1.992,7.426a22.494,22.494,0,0,0,2.954.091,4.555,4.555,0,0,0,2.252-.328,3.132,3.132,0,0,0,1.695-2.83,33.54,33.54,0,0,0-.09-3.867Q85.465,281.922,82.08,285.409Z" transform="translate(-67.595 -223.267)" fill="#2b1505"/>
      <path id="Path_27402" data-name="Path 27402" d="M188.915,290.134c2.064-.111,4.137-.015,6.2-.049a1.6,1.6,0,0,1,1.707,1.081,1.55,1.55,0,0,1-1.335,2.016c-2.03.038-4.063.007-6.093.015a1.556,1.556,0,0,1-.484-3.063Z" transform="translate(-158.699 -237.19)" fill="#2b1505"/>
      <path id="Path_27403" data-name="Path 27403" d="M189.09,324.27c4.108-.046,8.217-.013,12.327-.016a1.552,1.552,0,1,1-.009,3.1c-4.061,0-8.123.016-12.182-.007a1.546,1.546,0,0,1-.136-3.079Z" transform="translate(-158.703 -265.129)" fill="#2b1505"/>
      <path id="Path_27404" data-name="Path 27404" d="M82.587,375.431c1.406.005,2.82-.082,4.221.058a6.137,6.137,0,0,1,4.878,4.048A9.507,9.507,0,0,1,92.049,383a18.67,18.67,0,0,1-.107,2.9,6.216,6.216,0,0,1-3.665,4.6c-1.845.766-3.884.407-5.821.458a6.138,6.138,0,0,1-5.12-3.579,7.464,7.464,0,0,1-.575-3.479c.038-1.513-.165-3.1.428-4.531a6.131,6.131,0,0,1,5.4-3.938m-2.759,6.1a34.687,34.687,0,0,0,.084,4.026q3.424-3.451,6.815-6.937a34.314,34.314,0,0,0-3.825-.088,3.083,3.083,0,0,0-3.074,3m2.261,6.237a18.336,18.336,0,0,0,2.777.1,5.21,5.21,0,0,0,2.343-.284,3.148,3.148,0,0,0,1.784-2.954,33.389,33.389,0,0,0-.093-3.789Q85.476,384.285,82.089,387.769Z" transform="translate(-67.604 -306.964)" fill="#2b1505"/>
      <path id="Path_27405" data-name="Path 27405" d="M188.574,392.687a2.6,2.6,0,0,1,1.188-.177c1.851.015,3.7-.005,5.552.009a1.549,1.549,0,0,1,.158,3.094c-2.028.029-4.058.007-6.086.011a1.554,1.554,0,0,1-1.551-1.028A1.571,1.571,0,0,1,188.574,392.687Z" transform="translate(-158.708 -320.947)" fill="#2b1505"/>
      <path id="Path_27406" data-name="Path 27406" d="M188.713,426.754a4.533,4.533,0,0,1,1.4-.111c1.793.02,3.588-.026,5.382.018a1.549,1.549,0,0,1-.183,3.092c-1.971.009-3.943,0-5.914,0a1.559,1.559,0,0,1-.681-3Z" transform="translate(-158.704 -348.856)" fill="#2b1505"/>
    </g>
    <g id="_ffc247ff" data-name="#ffc247ff" transform="translate(3.043 3.112)">
      <path id="Path_27407" data-name="Path 27407" d="M65.595,17.07h3.072c-.029,7.231,0,14.462-.011,21.694a4.687,4.687,0,0,1-2.08,4.035,4.766,4.766,0,0,1-2.719.722c-7.064-.02-14.129.005-21.193-.013q0-1.551,0-3.1,8.454,0,16.906,0a5.912,5.912,0,0,0,4.138-1.628,6.113,6.113,0,0,0,1.883-4.394C65.6,28.613,65.589,22.84,65.595,17.07Z" transform="translate(-42.662 -17.07)" fill="#ffc247"/>
    </g>
    <g id="_ffe45cff" data-name="#ffe45cff" transform="translate(3.043 3.107)">
      <path id="Path_27408" data-name="Path 27408" d="M68.668,17.049H98.976a11.393,11.393,0,0,1,3.63.3,6.257,6.257,0,0,1,4.058,4.365c-7.1.013-14.2-.011-21.3.011A3.075,3.075,0,0,0,82.419,24.7c-.007,1.7-.032,3.4.014,5.1a3.138,3.138,0,0,0,3.035,2.83q0,8.158,0,16.314a7.393,7.393,0,0,0,.53,3.3,6.132,6.132,0,0,0,5.466,3.692c5.134.016,10.269,0,15.4.005.041,2.709-.052,5.422.048,8.128Q96.169,75.044,85.4,85.99a2.645,2.645,0,0,0-.566.884c-1.03,2.461-2.08,4.914-3.114,7.375a1.547,1.547,0,0,0,2.109,2.044q3.582-1.567,7.168-3.132a5.374,5.374,0,0,0,1.686-1.408q7.1-7.2,14.189-14.423c0,6.945.016,13.891-.007,20.836a6.185,6.185,0,0,1-5.907,6q-25.977.036-51.957.011a6.129,6.129,0,0,1-4.687-1.984A6.311,6.311,0,0,1,42.664,97.8V43.487c7.064.018,14.129-.007,21.193.013a4.766,4.766,0,0,0,2.719-.722,4.687,4.687,0,0,0,2.08-4.035c.007-7.233-.018-14.464.011-21.694m-15.28,28.2a6.192,6.192,0,0,0-4.325,4.161,11.732,11.732,0,0,0-.285,3.557,9.9,9.9,0,0,0,.348,3.482,6.2,6.2,0,0,0,4,3.9,17.465,17.465,0,0,0,4.461.27,6.189,6.189,0,0,0,4.217-1.4,6.279,6.279,0,0,0,2.254-4.8c0-1.152.021-2.3-.013-3.457a6.22,6.22,0,0,0-3.418-5.264,6.857,6.857,0,0,0-3.4-.636,18.065,18.065,0,0,0-3.845.2m16.243,3.025a1.559,1.559,0,0,0,.666,3q2.964.005,5.928,0a1.55,1.55,0,0,0,.183-3.092c-1.79-.044-3.581,0-5.373-.02a4.712,4.712,0,0,0-1.4.111m.011,6.219a1.568,1.568,0,0,0-.813,2.168A1.551,1.551,0,0,0,70.3,57.5q6.017.005,12.033,0a1.554,1.554,0,1,0-.03-3.1c-3.879-.009-7.757.005-11.637-.007a3.288,3.288,0,0,0-1.025.108m-15.9,9.346a6.205,6.205,0,0,0-4.953,5.9,38.883,38.883,0,0,0,.082,4.383,6.179,6.179,0,0,0,6.046,5.158c1.781-.069,3.655.255,5.349-.467A6.209,6.209,0,0,0,64,73.944,28.218,28.218,0,0,0,64.067,71a8.661,8.661,0,0,0-.358-3.145A6.158,6.158,0,0,0,59.377,63.9a11.915,11.915,0,0,0-2.859-.175,16.4,16.4,0,0,0-2.775.113m16.093,3.045a1.556,1.556,0,0,0,.484,3.063c2.03-.007,4.063.024,6.093-.015a1.55,1.55,0,0,0,1.335-2.016,1.6,1.6,0,0,0-1.707-1.081c-2.067.035-4.14-.062-6.2.049m.172,6.2a1.546,1.546,0,0,0,.136,3.079c4.059.024,8.121.009,12.182.007a1.552,1.552,0,1,0,.009-3.1c-4.11,0-8.219-.029-12.327.016M54.6,82.4a6.131,6.131,0,0,0-5.4,3.938c-.593,1.435-.391,3.017-.428,4.531a7.465,7.465,0,0,0,.575,3.479,6.138,6.138,0,0,0,5.12,3.579c1.937-.051,3.975.308,5.821-.458a6.216,6.216,0,0,0,3.665-4.6,18.673,18.673,0,0,0,.107-2.9,9.508,9.508,0,0,0-.364-3.462,6.137,6.137,0,0,0-4.878-4.048c-1.4-.14-2.814-.053-4.221-.058m14.884,3.273a1.571,1.571,0,0,0-.74,1.909A1.554,1.554,0,0,0,70.3,88.613c2.028,0,4.058.018,6.086-.011a1.549,1.549,0,0,0-.158-3.094c-1.851-.015-3.7.005-5.552-.009a2.6,2.6,0,0,0-1.188.177m.143,6.159a1.559,1.559,0,0,0,.681,3c1.971,0,3.943.007,5.914,0a1.549,1.549,0,0,0,.183-3.092c-1.793-.044-3.588,0-5.382-.018A4.533,4.533,0,0,0,69.63,91.835Z" transform="translate(-42.663 -17.044)" fill="#e9eef2"/>
    </g>
    <g id="_f2f2f2ff" data-name="#f2f2f2ff" transform="translate(5.207 5.311)">
      <path id="Path_27409" data-name="Path 27409" d="M54.74,47.156q8.854-9.014,17.711-18.026,0,7.559,0,15.12A2.923,2.923,0,0,1,70.527,47a5.115,5.115,0,0,1-1.763.162Q61.753,47.15,54.74,47.156Z" transform="translate(-54.74 -29.13)" fill="#f2f2f2"/>
      <path id="Path_27410" data-name="Path 27410" d="M281.6,59.728q2.738,0,5.478,0-2.163,2.207-4.33,4.41c-.267.388-.76.224-1.148.264Q281.594,62.066,281.6,59.728Z" transform="translate(-240.955 -54.149)" fill="#f2f2f2"/>
      <path id="Path_27411" data-name="Path 27411" d="M353.41,64.4Q355.7,62.062,358,59.73c1.105,0,2.212,0,3.32,0q-2.292,2.336-4.588,4.666Q355.07,64.4,353.41,64.4Z" transform="translate(-299.904 -54.151)" fill="#f2f2f2"/>
      <path id="Path_27412" data-name="Path 27412" d="M443.1,59.919c.267-.366.749-.2,1.127-.242q0,2.338,0,4.677-2.738,0-5.478,0Q440.924,62.132,443.1,59.919Z" transform="translate(-369.955 -54.106)" fill="#f2f2f2"/>
      <path id="Path_27413" data-name="Path 27413" d="M349.854,136.53h9.172c0,1.037,0,2.075,0,3.112-3.058-.005-6.114.011-9.172-.009C349.857,138.6,349.852,137.566,349.854,136.53Z" transform="translate(-296.982 -116.949)" fill="#f2f2f2"/>
      <path id="Path_27414" data-name="Path 27414" d="M95.663,187.97a4.973,4.973,0,0,1,2.141-.263,21.507,21.507,0,0,1,2.929.095q-3.383,3.487-6.811,6.934a34.079,34.079,0,0,1-.09-3.874A3.121,3.121,0,0,1,95.663,187.97Z" transform="translate(-86.82 -158.794)" fill="#f2f2f2"/>
      <path id="Path_27415" data-name="Path 27415" d="M110.935,203.113c.853-.835,1.639-1.741,2.54-2.523a37.183,37.183,0,0,1,.077,3.9,3.091,3.091,0,0,1-3.035,3.09,34.087,34.087,0,0,1-3.837-.084C108.05,205.987,109.525,204.581,110.935,203.113Z" transform="translate(-97.375 -169.329)" fill="#f2f2f2"/>
      <path id="Path_27416" data-name="Path 27416" d="M94.125,291.912a3.059,3.059,0,0,1,2.782-1.816,33.374,33.374,0,0,1,3.819.086c-2.218,2.352-4.513,4.633-6.781,6.937a19.673,19.673,0,0,1-.1-2.852A5.474,5.474,0,0,1,94.125,291.912Z" transform="translate(-86.839 -242.507)" fill="#f2f2f2"/>
      <path id="Path_27417" data-name="Path 27417" d="M106.53,309.744q3.383-3.49,6.811-6.934a33.54,33.54,0,0,1,.09,3.867,3.132,3.132,0,0,1-1.695,2.83,4.555,4.555,0,0,1-2.252.328A22.489,22.489,0,0,1,106.53,309.744Z" transform="translate(-97.252 -252.912)" fill="#f2f2f2"/>
      <path id="Path_27418" data-name="Path 27418" d="M93.835,395.5a3.083,3.083,0,0,1,3.074-3,34.313,34.313,0,0,1,3.825.088q-3.389,3.49-6.815,6.937A34.685,34.685,0,0,1,93.835,395.5Z" transform="translate(-86.817 -326.24)" fill="#f2f2f2"/>
      <path id="Path_27419" data-name="Path 27419" d="M106.53,412.12q3.391-3.479,6.811-6.93a33.391,33.391,0,0,1,.093,3.789,3.148,3.148,0,0,1-1.784,2.954,5.209,5.209,0,0,1-2.343.284A18.332,18.332,0,0,1,106.53,412.12Z" transform="translate(-97.252 -336.626)" fill="#f2f2f2"/>
    </g>
    <g id="_c29160ff" data-name="#c29160ff" transform="translate(48.903 10.885)">
      <path id="Path_27420" data-name="Path 27420" d="M314.953,60.129c.2-.175.387-.456.69-.407,1.01-.016,2.023.005,3.033,0-1.528,1.561-3.054,3.121-4.6,4.669-1.1-.011-2.195,0-3.291-.009C312.171,62.956,313.576,61.556,314.953,60.129Z" transform="translate(-308.615 -59.713)" fill="#c29160"/>
      <path id="Path_27421" data-name="Path 27421" d="M396.11,64.371c1.534-1.559,3.051-3.134,4.606-4.671,1.095.015,2.189,0,3.284.009-1.512,1.557-3.049,3.087-4.552,4.651C398.335,64.386,397.222,64.369,396.11,64.371Z" transform="translate(-378.65 -59.7)" fill="#c29160"/>
      <path id="Path_27422" data-name="Path 27422" d="M298.65,102.4q13.761-.016,27.524,0c-.007,1.025,0,2.047,0,3.072-2.847.069-5.7-.049-8.54.067q-5.216-.074-10.434,0c-2.847-.115-5.7,0-8.544-.069C298.652,104.443,298.655,103.421,298.65,102.4Z" transform="translate(-298.65 -94.604)" fill="#c29160"/>
    </g>
    <g id="_e3a76fff" data-name="#e3a76fff" transform="translate(48.904 21.749)">
      <path id="Path_27423" data-name="Path 27423" d="M298.658,119.29c2.848.071,5.7-.046,8.544.069a3.285,3.285,0,0,0-2.021,1.521,6.146,6.146,0,0,0-.41,3.09,6.779,6.779,0,0,0,.337,2.988,3.061,3.061,0,0,0,2.739,1.7q4.576.008,9.154,0a3.054,3.054,0,0,0,2.66-1.579,6.278,6.278,0,0,0,.4-3.092,6.2,6.2,0,0,0-.4-3.094,3.292,3.292,0,0,0-2.021-1.528c2.845-.117,5.693,0,8.54-.067-.007,4.717.014,9.433-.011,14.15a3.087,3.087,0,0,1-3.094,2.99q-10.644.008-21.292,0a3.088,3.088,0,0,1-3.112-2.99C298.643,128.727,298.663,124.008,298.658,119.29Z" transform="translate(-298.655 -119.29)" fill="#e3a76f"/>
    </g>
    <g id="_7e8596ff" data-name="#7e8596ff" transform="translate(67.271 51.908)">
      <path id="Path_27424" data-name="Path 27424" d="M403.253,285.264a1.594,1.594,0,0,1,1.285-.551,1.545,1.545,0,0,1,1.41,1.508,1.659,1.659,0,0,1-.534,1.238c-.684.711-1.383,1.408-2.078,2.108q-1.08-1.1-2.155-2.193C401.873,286.674,402.554,285.959,403.253,285.264Z" transform="translate(-401.18 -284.706)" fill="#7e8596"/>
    </g>
    <g id="_dce1ebff" data-name="#dce1ebff" transform="translate(46.402 56.778)">
      <path id="Path_27425" data-name="Path 27425" d="M286.4,328.735c5.647-5.789,11.333-11.543,17-17.315.718.724,1.428,1.46,2.152,2.181q-7.672,7.854-15.385,15.667a23.208,23.208,0,0,1-1.831,1.776c-1.206.558-2.431,1.072-3.646,1.6C285.276,331.351,285.733,329.988,286.4,328.735Z" transform="translate(-284.69 -311.42)" fill="#dce1eb"/>
    </g>
  </g>
</svg>
