<svg xmlns="http://www.w3.org/2000/svg" width="86.927" height="90.474" viewBox="0 0 86.927 90.474">
  <g id="Group_17597" data-name="Group 17597" transform="translate(-0.001 0)">
    <path id="Path_27395" data-name="Path 27395" d="M14.553,0A14.684,14.684,0,0,1,29.106,14.811,14.684,14.684,0,0,1,14.553,29.621,14.684,14.684,0,0,1,0,14.811,14.684,14.684,0,0,1,14.553,0Z" transform="translate(25.272 17.773)" fill="#fea31c"/>
    <text id="_" data-name="৳" transform="translate(34.096 38.113)" fill="#fff" font-size="16"  font-weight="700"><tspan x="0" y="0">৳</tspan></text>
    <g id="_3080717" data-name="3080717" transform="translate(0.001 0)">
      <g id="_5aaae7ff" data-name="#5aaae7ff" transform="translate(16.094 0)">
        <path id="Path_27374" data-name="Path 27374" d="M96.7,29.377a9.089,9.089,0,0,1,8.235-5.418q14.407-.009,28.815,0a10.8,10.8,0,0,1,4.772.7,9.239,9.239,0,0,1,5.582,8.494q.008,27.6,0,55.2a7.574,7.574,0,0,0-1.465.215c-.075-2.754-.017-5.51-.038-8.264a25.963,25.963,0,0,0-.09-3.571,4.946,4.946,0,0,0-1.951-2.98,1.43,1.43,0,0,0-1.06-.226,4.968,4.968,0,0,0-1.846-2.745,4.452,4.452,0,0,0-4.928-.155,4.673,4.673,0,0,0-2.177,4.107q.006,11.41,0,22.819c-1.2,0-2.4,0-3.593,0a4.61,4.61,0,0,0-3.377-1.472,4.66,4.66,0,0,0-3.305,1.482c-3.8-.029-7.6,0-11.4-.013,1.629-2.98,3.318-5.928,5.039-8.853a4.05,4.05,0,0,0,1.254,2.087,3.339,3.339,0,0,0,2.192.64c1.7,0,3.4-.011,5.1,0a3.316,3.316,0,0,0,2.77-1.023,3.081,3.081,0,0,0-.284-4.4c-1.267-1.1-3.047-.629-4.563-.719-1.7.109-3.537-.355-5.1.5.156-1.524-.1-3.312-1.441-4.238a6.452,6.452,0,0,0-2.693-4.887,5.988,5.988,0,0,0-7.154.362,10.7,10.7,0,0,0-2.3,3.235q-2.74,4.836-5.482,9.667l-.079-.09c.045-.318.051-.717-.258-.9.056-8.37.009-16.741.023-25.111q.006-15.24,0-30.481a9.585,9.585,0,0,1,.8-3.971m11.275-.8c-.047,1-.047,2.012,0,3.017q1.483.072,2.968,0c.047-1.006.045-2.014,0-3.019-.989-.048-1.979-.048-2.966,0m6.024,0q-.068,1.512,0,3.024,6,.052,12.005,0,.071-1.512,0-3.024-6-.055-12.005,0m-.58,15.513a13.783,13.783,0,0,0-6.256,7.626,13.943,13.943,0,0,0,5.52,16.065,2.844,2.844,0,0,0,.23.586,12.894,12.894,0,0,0,6.749,4.226,13.346,13.346,0,0,0,13.39-4.117,13.645,13.645,0,0,0,3.418-7.452,13.862,13.862,0,0,0-3.691-11.356,2.682,2.682,0,0,0-1.35-.966,13.676,13.676,0,0,0-8.8-6.091A13.384,13.384,0,0,0,113.416,44.09Z" transform="translate(-95.87 -23.946)" fill="#95979d"/>
      </g>
      <g id="_3d9ae2ff" data-name="#3d9ae2ff" transform="translate(26.921 4.599)">
        <path id="Path_27375" data-name="Path 27375" d="M159.977,47.978c.987-.048,1.977-.048,2.966,0,.045,1,.047,2.012,0,3.019q-1.483.072-2.968,0C159.93,49.991,159.93,48.983,159.977,47.978Z" transform="translate(-158.702 -47.943)" fill="#3d9ae2"/>
        <path id="Path_27376" data-name="Path 27376" d="M191.974,47.995q6-.055,12.005,0,.071,1.512,0,3.024-6,.057-12.005,0Q191.906,49.507,191.974,47.995Z" transform="translate(-184.675 -47.963)" fill="#3d9ae2"/>
        <path id="Path_27377" data-name="Path 27377" d="M203.875,153.12a2.682,2.682,0,0,1,1.35.966,13.862,13.862,0,0,1,3.691,11.356,13.645,13.645,0,0,1-3.418,7.452,13.346,13.346,0,0,1-13.39,4.117,12.894,12.894,0,0,1-6.749-4.226,2.844,2.844,0,0,1-.23-.586,13.4,13.4,0,0,0,16.621-1.589,13.9,13.9,0,0,0,4.222-9.061A14.119,14.119,0,0,0,203.875,153.12Z" transform="translate(-179.147 -132.962)" fill="#3d9ae2"/>
        <path id="Path_27378" data-name="Path 27378" d="M327.52,282.623a1.431,1.431,0,0,1,1.06.226,4.947,4.947,0,0,1,1.951,2.98,25.954,25.954,0,0,1,.09,3.571c.021,2.754-.038,5.51.038,8.264a5.025,5.025,0,0,0-2.757,2.72c-.075.025-.226.079-.3.1.025-5.165,0-10.33.013-15.5A18.406,18.406,0,0,0,327.52,282.623Z" transform="translate(-294.722 -237.642)" fill="#3d9ae2"/>
        <path id="Path_27379" data-name="Path 27379" d="M160.5,324.53c1.341.926,1.6,2.714,1.441,4.238a3.562,3.562,0,0,0-1.365,2.905c-1.721,2.925-3.41,5.872-5.039,8.853-.428,0-.855,0-1.282,0-.305-.5-.6-1.018-.889-1.531,2.058-3.747,4.22-7.432,6.3-11.164A7.129,7.129,0,0,0,160.5,324.53Z" transform="translate(-153.36 -271.52)" fill="#3d9ae2"/>
      </g>
      <g id="_ff9811ff" data-name="#ff9811ff" transform="translate(0 15.349)">
        <path id="Path_27380" data-name="Path 27380" d="M14.926,104.478a1.474,1.474,0,0,1,2.113,0c1.518,1.516,3.009,3.059,4.518,4.586q-1.04,1.11-2.13,2.166c-.64-.648-1.26-1.317-1.93-1.932-.019,5.909,0,11.818-.009,17.726H14.478c-.009-5.909.009-11.818-.009-17.724-.669.615-1.286,1.284-1.928,1.928q-1.088-1.058-2.13-2.162C11.92,107.54,13.414,106,14.926,104.478Z" transform="translate(-10.41 -104.031)" fill="#ff9811"/>
        <path id="Path_27381" data-name="Path 27381" d="M382.828,104.61a1.59,1.59,0,0,1,2.5.188c1.4,1.441,2.817,2.869,4.224,4.307q-1.039,1.11-2.13,2.166c-.64-.648-1.26-1.317-1.928-1.932-.021,5.909,0,11.818-.011,17.726-1,0-2.007,0-3.011,0-.007-5.907.011-11.816-.007-17.722-.669.615-1.286,1.284-1.928,1.93-.725-.705-1.433-1.43-2.13-2.164Q380.622,106.861,382.828,104.61Z" transform="translate(-309.108 -104.071)" fill="#ff9811"/>
        <path id="Path_27382" data-name="Path 27382" d="M32,240q1.5-.006,3.009,0c0,1.022,0,2.043,0,3.065-1,0-2.008,0-3.011,0Q31.992,241.526,32,240Z" transform="translate(-27.93 -213.935)" fill="#ff9811"/>
        <path id="Path_27383" data-name="Path 27383" d="M399.994,240q1.506-.006,3.011,0,0,1.532,0,3.065-1.508.006-3.013,0Q399.991,241.527,399.994,240Z" transform="translate(-326.626 -213.935)" fill="#ff9811"/>
        <path id="Path_27384" data-name="Path 27384" d="M400,272q1.5-.006,3.011,0,0,1.529,0,3.063c-1,0-2.008,0-3.009,0Q399.992,273.527,400,272Z" transform="translate(-326.628 -239.804)" fill="#ff9811"/>
      </g>
      <g id="_ffc477ff" data-name="#ffc477ff" transform="translate(5.564 39.883)">
        <path id="Path_27387" data-name="Path 27387" d="M48.976,232.766a3.528,3.528,0,0,1,1.533-.726c-.013,8.37.034,16.741-.023,25.111a.809.809,0,0,0,.258.9l.079.09c-.548.995-1.145,1.961-1.689,2.959a2.426,2.426,0,0,0-.4,1.489,1.556,1.556,0,0,0,1.734,1.215c.672-.1,1.055-.744,1.382-1.282,2.531-4.561,5.145-9.077,7.7-13.625A3.291,3.291,0,0,1,62,246.962a3,3,0,0,1,3.3,2.421,3.785,3.785,0,0,1-.582,2.668c-1.849,3.229-3.665,6.48-5.523,9.7a10.62,10.62,0,0,0-1.1,2.143,2.319,2.319,0,0,0,.482,1.7c.921,1.5,1.8,3.028,2.706,4.538a8.579,8.579,0,0,1,1.282,4.441q-.008,4.025-.008,8.05c-7.533-.023-15.064.019-22.6.008V259.248c.055-2.492-.2-5.029.412-7.473a25.416,25.416,0,0,1,1.908-4.924q2.732-6.037,5.465-12.071A5.288,5.288,0,0,1,48.976,232.766Z" transform="translate(-39.957 -232.04)" fill="#ffc477"/>
        <path id="Path_27388" data-name="Path 27388" d="M232.819,264.687a4.452,4.452,0,0,1,4.928.155,4.968,4.968,0,0,1,1.846,2.745,18.414,18.414,0,0,1,.094,2.369c-.015,5.165.011,10.33-.013,15.5-.565.161-1.286.366-1.4,1.054a36.264,36.264,0,0,0-.1,4.341,12.239,12.239,0,0,0,.139,2.948,1.5,1.5,0,0,0,2.734,0,13.427,13.427,0,0,0,.141-3.137c-.045-1.332.1-2.672-.06-4-.066-.65-.712-.951-1.154-1.311a5.025,5.025,0,0,1,2.757-2.72,7.582,7.582,0,0,1,1.465-.215,4.419,4.419,0,0,1,4.19,2.971c-.435.343-1.047.648-1.109,1.274a37.666,37.666,0,0,0-.06,3.8,18.394,18.394,0,0,0,.094,3.189,1.51,1.51,0,0,0,2.493.594,2.726,2.726,0,0,0,.439-1.861c-.03-1.667,0-3.335-.006-5a2.78,2.78,0,0,0-.557-1.669,4.517,4.517,0,0,1,3.561-1.765,4.415,4.415,0,0,1,4.184,2.967c-.435.345-1.043.65-1.111,1.276-.153,1.133-.026,2.281-.07,3.421a6.567,6.567,0,0,0,.2,2.311,1.512,1.512,0,0,0,2.682-.132,14.082,14.082,0,0,0,.143-3.137c-.021-1.148.218-2.442-.554-3.408a4.507,4.507,0,0,1,3.96-1.748,4.585,4.585,0,0,1,4.119,4.569q.011,9.205,0,18.411-20.251,0-40.5,0c-2.034-3.549-4.04-7.118-6.07-10.672a6.514,6.514,0,0,1-.987-2.4,4.769,4.769,0,0,1,1.126-3.783,4.659,4.659,0,0,1,3.305-1.482,4.61,4.61,0,0,1,3.377,1.472c1.346,1.915,2.326,4.069,3.574,6.051.043-2.018.008-4.036.019-6.052q0-11.41,0-22.819A4.673,4.673,0,0,1,232.819,264.687Z" transform="translate(-185.439 -257.889)" fill="#ffc477"/>
      </g>
      <g id="_ffb655ff" data-name="#ffb655ff" transform="translate(14.32 51.707)">
        <path id="Path_27389" data-name="Path 27389" d="M96.338,295.111a5.988,5.988,0,0,1,7.154-.362,6.452,6.452,0,0,1,2.693,4.887,7.129,7.129,0,0,1-.83,3.3c-2.085,3.732-4.247,7.417-6.3,11.164.292.514.584,1.027.889,1.531,1.418,2.417,3.181,4.811,3.33,7.733.1,3.04.021,6.087.043,9.131-1.006-.006-2.009.019-3.013,0q0-4.025.008-8.05A8.58,8.58,0,0,0,99.023,320c-.906-1.51-1.785-3.038-2.706-4.538a2.319,2.319,0,0,1-.482-1.7,10.62,10.62,0,0,1,1.1-2.143c1.859-3.224,3.674-6.474,5.523-9.7a3.785,3.785,0,0,0,.582-2.668,3,3,0,0,0-3.3-2.421,3.291,3.291,0,0,0-2.452,1.938c-2.552,4.548-5.166,9.064-7.7,13.625-.328.539-.71,1.179-1.382,1.282a1.556,1.556,0,0,1-1.734-1.215,2.425,2.425,0,0,1,.4-1.489c.544-1,1.141-1.965,1.689-2.959q2.74-4.836,5.482-9.667A10.7,10.7,0,0,1,96.338,295.111Z" transform="translate(-86.449 -293.734)" fill="#ffb655"/>
        <path id="Path_27390" data-name="Path 27390" d="M320,376.468c.115-.688.836-.893,1.4-1.054l.3-.1c.443.36,1.089.661,1.154,1.311.164,1.324.015,2.664.06,4a13.432,13.432,0,0,1-.141,3.137,1.5,1.5,0,0,1-2.734,0,12.236,12.236,0,0,1-.139-2.948A36.264,36.264,0,0,1,320,376.468Z" transform="translate(-275.92 -359.675)" fill="#ffb655"/>
        <path id="Path_27391" data-name="Path 27391" d="M367.973,376.774c.062-.627.674-.931,1.109-1.274.431.105.864.209,1.294.33a2.78,2.78,0,0,1,.557,1.669c0,1.667-.025,3.335.006,5a2.727,2.727,0,0,1-.439,1.861,1.51,1.51,0,0,1-2.493-.594,18.391,18.391,0,0,1-.094-3.189A37.652,37.652,0,0,1,367.973,376.774Z" transform="translate(-314.888 -359.829)" fill="#ffb655"/>
        <path id="Path_27392" data-name="Path 27392" d="M415.984,384.766c.068-.627.676-.931,1.111-1.276.431.105.864.211,1.292.332.772.966.533,2.26.554,3.408a14.079,14.079,0,0,1-.143,3.137,1.512,1.512,0,0,1-2.682.132,6.568,6.568,0,0,1-.2-2.311C415.958,387.047,415.831,385.9,415.984,384.766Z" transform="translate(-353.862 -366.288)" fill="#ffb655"/>
      </g>
      <g id="_e6e7e8ff" data-name="#e6e7e8ff" transform="translate(34.131 61.313)">
        <path id="Path_27393" data-name="Path 27393" d="M193.015,344.391c1.567-.859,3.407-.395,5.1-.5,1.516.09,3.3-.378,4.563.719a3.081,3.081,0,0,1,.284,4.4,3.316,3.316,0,0,1-2.77,1.023c-1.7-.015-3.4,0-5.1,0a3.338,3.338,0,0,1-2.192-.64,4.051,4.051,0,0,1-1.254-2.087A3.563,3.563,0,0,1,193.015,344.391Z" transform="translate(-191.65 -343.858)" fill="#e6e7e8"/>
      </g>
      <g id="_849190cc" data-name="#849190cc" transform="translate(16.054 64.993)">
        <path id="Path_27394" data-name="Path 27394" d="M95.7,363.06c.309.186.3.585.258.9A.809.809,0,0,1,95.7,363.06Z" transform="translate(-95.661 -363.06)" fill="#849190" opacity="0.8"/>
      </g>
    </g>
  </g>
</svg>
