<svg id="NoPath_-_Copy_8_" data-name="NoPath - Copy (8)" xmlns="http://www.w3.org/2000/svg" width="94.939" height="90.474" viewBox="0 0 94.939 90.474">
  <g id="_869ca8ff" data-name="#869ca8ff" transform="translate(1.793)">
    <path id="Path_27426" data-name="Path 27426" d="M4.468,15.438C2.547,10.082,7.157,5.6,11.945,4.57,20.729,18.409,25.569,34.294,32.74,48.993,28.232,50.53,23.3,52.316,21.088,57.02,15.543,43.155,9.73,29.394,4.468,15.438m4.75,3.531c2.292-.769,6.556,1.069,7.145-2.4.563-2.267-1.754-3.492-3.393-4.3-2.8.977-2.586,4.47-3.752,6.7m6.594,7.35c1.306,3.44,2.356,7.793,6.645,8.431-1.293-3.453-2.023-8.249-6.645-8.431M21.152,39.4c1.088,3.453,2.433,7.415,6.441,8.236C26.414,44.236,25.812,39.35,21.152,39.4Z" transform="translate(-2.073 -4.57)" fill="#869ca8"/>
    <path id="Path_27427" data-name="Path 27427" d="M55.37,11.343c2.676-.99,6.325-3.01,8.553-.078,2.2,2.215.653,5.082-.384,7.428-1.946.091-3.905.182-5.852.287l-.371-1.16C56.663,15.669,56,13.519,55.37,11.343Z" transform="translate(12.326 -3.003)" fill="#869ca8"/>
    <path id="Path_27428" data-name="Path 27428" d="M18.68,15.2c6.978-.274,13.905-1.512,20.909-1.342C46.414,13.521,53.072,15.4,59.833,16c-.077.925-.218,2.776-.282,3.7-12.971-.052-25.941,0-38.912-.039Z" transform="translate(2.037 -1.767)" fill="#869ca8"/>
    <path id="Path_27429" data-name="Path 27429" d="M57.083,26.8c.858-.274,2.574-.808,3.444-1.069a18.444,18.444,0,0,1-4.494,7.323q1.844,2.131,3.675,4.274c-3.7,2.346-5.749-2.254-8.208-4.2C53.7,31.333,54.727,28.4,57.083,26.8Z" transform="translate(11.241 1.844)" fill="#869ca8"/>
    <path id="Path_27430" data-name="Path 27430" d="M59.92,25.67c.948,0,2.843.026,3.79.039.807,3.049,3.368,4.978,5.352,7.219-1.921,2.046-3.854,4.066-5.839,6.033-.512-.612-1.549-1.837-2.061-2.45,1.14-1.108,2.266-2.215,3.419-3.323A24,24,0,0,1,59.92,25.67Z" transform="translate(13.602 1.825)" fill="#869ca8"/>
    <path id="Path_27431" data-name="Path 27431" d="M19.312,50.572c3.444-3.492,7.119-7.35,12.036-8.483,4.481-.482,7.439,3.714,10.692,6.151-.32,6.542-.128,13.1-.166,19.651h8v6.424q-23.681,0-47.376,0V67.89h7.785c3.06-5.747,5.7-11.728,9.027-17.318m10.538-6.2c-.691,1.316-1.37,2.632-2.061,3.948.832,1.459,1.652,2.906,2.484,4.365,1.9-2.046,4.456-3.088,6.991-4.066C35.036,46.767,32.36,45.7,29.85,44.369Z" transform="translate(-2.5 6.791)" fill="#869ca8"/>
    <path id="Path_27432" data-name="Path 27432" d="M43.077,72.151c-.333-3.831,1.933-8.157,6.146-8.079,9.475-.156,18.976-.078,28.464-.039,2.51-.182,4.469,1.681,6.569,2.737-2.318,2.137-4.328,5.395-7.849,5.33C65.318,72.62,54.191,72.086,43.077,72.151Z" transform="translate(8.87 13.437)" fill="#869ca8"/>
    <path id="Path_27433" data-name="Path 27433" d="M38.18,71.69H41.7c.013.743.051,2.241.064,3-.922,0-2.766-.013-3.675-.026C38.1,73.918,38.154,72.433,38.18,71.69Z" transform="translate(7.48 15.774)" fill="#869ca8"/>
    <path id="Path_27434" data-name="Path 27434" d="M8.763,71.69h6.3c0,.756.013,2.254.013,3.01H8.75C8.75,73.957,8.75,72.446,8.763,71.69Z" transform="translate(-0.747 15.774)" fill="#869ca8"/>
    <path id="Path_27435" data-name="Path 27435" d="M16,71.69h6.4V74.7H16Z" transform="translate(1.286 15.774)" fill="#869ca8"/>
    <path id="Path_27436" data-name="Path 27436" d="M23.453,71.69h6.3V74.7H23.44C23.44,73.944,23.453,72.446,23.453,71.69Z" transform="translate(3.372 15.774)" fill="#869ca8"/>
    <path id="Path_27437" data-name="Path 27437" d="M31,71.69h6.4V74.7H31Z" transform="translate(5.492 15.774)" fill="#869ca8"/>
  </g>
  <g id="_64656bff" data-name="#64656bff" transform="translate(8.937)">
    <path id="Path_27438" data-name="Path 27438" d="M10.21,4.57a25.657,25.657,0,0,1,7.836,4.9c14.661.169,29.309.039,43.97.065l.051,3.18c1.959-.026,3.918-.052,5.89-.091l.077.287c.627,2.176,1.293,4.326,1.946,6.476-2.586-.2-5.186-.339-7.772-.586-6.761-.6-13.419-2.476-20.244-2.137-7-.169-13.931,1.069-20.909,1.342l1.959,4.457C28.315,35,33.834,47.442,39.877,59.6c-3.252-2.437-6.21-6.633-10.692-6.151-4.917,1.134-8.592,4.991-12.036,8.483.717-1.655,1.344-3.349,2.2-4.913C21.567,52.316,26.5,50.53,31,48.993,23.834,34.294,18.994,18.409,10.21,4.57Z" transform="translate(-7.483 -4.57)" fill="#64656b"/>
    <path id="Path_27439" data-name="Path 27439" d="M8.08,17.178c1.165-2.228.948-5.721,3.752-6.7,1.639.808,3.957,2.033,3.393,4.3C14.636,18.247,10.372,16.409,8.08,17.178Z" transform="translate(-8.08 -2.779)" fill="#64656b"/>
    <path id="Path_27440" data-name="Path 27440" d="M57.6,16.9c1.946-.1,3.905-.2,5.852-.287.691,3.922,1.05,7.9,1.447,11.845-.948-.013-2.843-.039-3.79-.039-.435.013-1.319.052-1.754.078-.871.261-2.586.795-3.444,1.069-.128-1.473-.192-2.945-.218-4.418C57.559,22.8,57.3,19.7,57.6,16.9Z" transform="translate(5.271 -0.921)" fill="#64656b"/>
    <path id="Path_27441" data-name="Path 27441" d="M24.311,43.83c2.51,1.329,5.186,2.4,7.414,4.248-2.535.977-5.1,2.02-6.991,4.066-.832-1.459-1.652-2.906-2.484-4.365C22.941,46.462,23.62,45.146,24.311,43.83Z" transform="translate(-4.106 7.33)" fill="#64656b"/>
    <path id="Path_27442" data-name="Path 27442" d="M84.248,66.12c.115,3.414-.1,7.923-4.225,8.7-9.77.625-19.6.117-29.4.261-3.073.469-5.416-1.707-7.555-3.584,11.114-.065,22.241.469,33.329-.052C79.921,71.515,81.931,68.257,84.248,66.12Z" transform="translate(1.732 14.086)" fill="#64656b"/>
  </g>
  <g id="_676b72ff" data-name="#676b72ff" transform="translate(15.532 21.749)">
    <path id="Path_27443" data-name="Path 27443" d="M13.23,21.26c4.622.182,5.352,4.978,6.645,8.431C15.586,29.053,14.536,24.7,13.23,21.26Z" transform="translate(-13.23 -21.26)" fill="#676b72"/>
  </g>
  <g id="_6a6e76ff" data-name="#6a6e76ff" transform="translate(20.871 34.832)">
    <path id="Path_27444" data-name="Path 27444" d="M17.4,31.3c4.661-.052,5.263,4.835,6.441,8.236C19.833,38.715,18.488,34.753,17.4,31.3Z" transform="translate(-17.4 -31.3)" fill="#6a6e76"/>
  </g>
  <g id="_099bf4ff" data-name="#099bf4ff" transform="translate(58.682 48.775)">
    <path id="Path_27445" data-name="Path 27445" d="M46.93,42.013C47.685,42,49.209,42,49.965,42c.013,1.016.026,2.046.038,3.062-.7.065-2.126.2-2.83.248C47.109,44.489,46.994,42.834,46.93,42.013Z" transform="translate(-46.93 -42)" fill="#099bf4"/>
    <path id="Path_27446" data-name="Path 27446" d="M66.8,45.075c.013-1.029.013-2.046.026-3.075.717,0,2.164,0,2.881.013-.064.821-.192,2.476-.256,3.3C68.8,45.258,67.466,45.127,66.8,45.075Z" transform="translate(-41.358 -42)" fill="#099bf4"/>
    <path id="Path_27447" data-name="Path 27447" d="M50.758,45.8l2.791.1c1.921,1.811-1.178,4.574-2.83,2.632C50.733,47.859,50.746,46.478,50.758,45.8Z" transform="translate(-45.867 -40.848)" fill="#099bf4"/>
    <path id="Path_27448" data-name="Path 27448" d="M63.71,45.68a27.267,27.267,0,0,1,2.74.7C66.744,48.742,64,48.6,62.57,49.3,62.865,48.4,63.428,46.579,63.71,45.68Z" transform="translate(-42.544 -40.885)" fill="#099bf4"/>
    <path id="Path_27449" data-name="Path 27449" d="M46.97,48.016c.743-.013,2.241-.013,2.983-.026l.038,3.44c-.717.039-2.164.13-2.894.169C47.072,50.7,47,48.9,46.97,48.016Z" transform="translate(-46.919 -40.184)" fill="#099bf4"/>
    <path id="Path_27450" data-name="Path 27450" d="M66.838,48h2.868c-.064.925-.2,2.763-.269,3.688L66.8,51.375C66.813,50.254,66.826,49.121,66.838,48Z" transform="translate(-41.358 -40.181)" fill="#099bf4"/>
    <path id="Path_27451" data-name="Path 27451" d="M54.266,49.323c.871,0,2.625-.013,3.5-.013.013.886.013,2.632.013,3.505-.883,0-2.65-.013-3.534-.013C54.253,51.929,54.253,50.183,54.266,49.323Z" transform="translate(-44.88 -39.784)" fill="#099bf4"/>
    <path id="Path_27452" data-name="Path 27452" d="M59.13,49.323c.871,0,2.612-.013,3.5-.013.013.873.026,2.619.038,3.479-.883.013-2.65.026-3.534.039Z" transform="translate(-43.509 -39.784)" fill="#099bf4"/>
    <path id="Path_27453" data-name="Path 27453" d="M49.32,61.976V55.63H71.715v6.346Z" transform="translate(-46.26 -37.869)" fill="#099bf4"/>
  </g>
  <g id="_8398a4f9" data-name="#8398a4f9" transform="translate(0 87.451)">
    <path id="Path_27454" data-name="Path 27454" d="M1.113,71.693c2.087,0,4.174-.013,6.261-.013V74.7H1.1C1.113,73.947,1.113,72.449,1.113,71.693Z" transform="translate(-1.1 -71.68)" fill="#8398a4" opacity="0.98"/>
  </g>
</svg>
