<svg xmlns="http://www.w3.org/2000/svg" width="92.443" height="88.064" viewBox="0 0 92.443 88.064">
  <g id="_4221652" data-name="4221652" transform="translate(0 -15.984)">
    <g id="_000000ff" data-name="#000000ff" transform="translate(0 15.984)">
      <path id="Path_27455" data-name="Path 27455" d="M9.527,16.19a19.727,19.727,0,0,1,3.865-.2q28.528,0,57.055,0A11.785,11.785,0,0,1,82.186,27.728q.008,30.818.006,61.637c2.937.022,5.876-.02,8.813.017a1.423,1.423,0,0,1,1.433,1.277,13.208,13.208,0,0,1-13.368,13.389q-23.4-.008-46.788-.006A11.775,11.775,0,0,1,20.549,92.3q-.008-29.351-.006-58.7-8.621-.011-17.241,0a16.524,16.524,0,0,1-2.174-.055C.615,33.47.319,33,0,32.645V26.919a11.914,11.914,0,0,1,3.267-7.292A11.789,11.789,0,0,1,9.527,16.19m-1.9,3.757a8.8,8.8,0,0,0-4.357,5.377,20.386,20.386,0,0,0-.338,5.339q8.8,0,17.608,0a20.218,20.218,0,0,0-.341-5.337A8.8,8.8,0,0,0,7.632,19.948M19.56,18.929a12.289,12.289,0,0,1,3.645,6.27,19.941,19.941,0,0,1,.277,4.546q0,31.189,0,62.375a9,9,0,0,0,.842,3.919,8.8,8.8,0,0,0,15.034,1.5,9.462,9.462,0,0,0,1.732-6.348,1.541,1.541,0,0,1,1.457-1.818q18.352-.025,36.7-.007.006-30.088,0-60.173a16.046,16.046,0,0,0-.163-3.1,8.818,8.818,0,0,0-8.826-7.175q-25.353.008-50.7.007M44.04,92.3a12.081,12.081,0,0,1-3.922,8.8q19.475.033,38.951.009a10.3,10.3,0,0,0,10.341-8.8Q66.727,92.3,44.04,92.3Z" transform="translate(0 -15.984)" fill="#525050"/>
      <path id="Path_27456" data-name="Path 27456" d="M184,57.44a1.455,1.455,0,0,1,1.447-1.447c.987-.02,1.972-.006,2.959-.006a4.4,4.4,0,0,1,1.4,8.569,8.918,8.918,0,0,1-2.878.235c-.006.552.026,1.106-.022,1.657A1.459,1.459,0,0,1,184,66.273q-.019-4.417,0-8.833m2.932,1.482c0,.978,0,1.954,0,2.932.8-.057,1.734.209,2.407-.345a1.471,1.471,0,0,0,0-2.244C188.663,58.711,187.725,58.981,186.929,58.922Z" transform="translate(-150.236 -48.644)" fill="#525050"/>
      <path id="Path_27457" data-name="Path 27457" d="M242.945,56.989a1.469,1.469,0,0,1,2.778,0c.934,2.313,1.847,4.636,2.785,6.949a3.49,3.49,0,0,1,.237,1.6,2.412,2.412,0,0,1-.354,1.673,1.468,1.468,0,0,1-2.062.183,1.9,1.9,0,0,1-.565-1.119q-1.431-.011-2.858,0a1.683,1.683,0,0,1-.892,1.325,1.463,1.463,0,0,1-2.06-1.141,5.755,5.755,0,0,1,.207-2.521c.937-2.313,1.851-4.634,2.785-6.949m.633,6.344q.754.008,1.512,0a16.88,16.88,0,0,0-.756-1.814A16.877,16.877,0,0,0,243.578,63.333Z" transform="translate(-195.902 -48.658)" fill="#525050"/>
      <path id="Path_27458" data-name="Path 27458" d="M304.957,56.059a1.469,1.469,0,0,1,1.946,1.369q.019,4.417,0,8.835a1.46,1.46,0,0,1-2.921,0c-.018-2.884,0-5.768-.007-8.652A1.5,1.5,0,0,1,304.957,56.059Z" transform="translate(-248.205 -48.634)" fill="#525050"/>
      <path id="Path_27459" data-name="Path 27459" d="M336.956,56a7.473,7.473,0,0,1,5.078.818,5.866,5.866,0,0,1-1.224,10.516,9.415,9.415,0,0,1-3.381.314,1.456,1.456,0,0,1-1.446-1.446c-.017-2.884,0-5.768-.007-8.65a1.5,1.5,0,0,1,.98-1.552m1.967,2.823q-.028,2.961,0,5.922a3.2,3.2,0,0,0,1.963-.8,2.921,2.921,0,0,0,.429-3.832A3.081,3.081,0,0,0,338.922,58.821Z" transform="translate(-274.335 -48.57)" fill="#525050"/>
      <path id="Path_27460" data-name="Path 27460" d="M168.966,136.051a7.845,7.845,0,0,1,1.774-.086h36.7a1.49,1.49,0,0,1,1.631,1.455q.019,2.947,0,5.9a1.492,1.492,0,0,1-1.629,1.453q-18.536,0-37.071,0a3.023,3.023,0,0,1-1.758-.27,1.526,1.526,0,0,1-.629-1.369c0-1.906-.011-3.812.006-5.716a1.455,1.455,0,0,1,.974-1.367m1.956,2.851q0,1.467,0,2.932,17.609.006,35.22,0c0-.978,0-1.954,0-2.932Q188.535,138.9,170.922,138.9Z" transform="translate(-137.166 -113.947)" fill="#525050"/>
      <path id="Path_27461" data-name="Path 27461" d="M168.99,200.055a7.834,7.834,0,0,1,1.772-.086h36.706a1.5,1.5,0,0,1,1.594,1.13,1.468,1.468,0,0,1-1.413,1.8c-12.6.018-25.209,0-37.814.011a1.663,1.663,0,0,1-1.558-.631A1.473,1.473,0,0,1,168.99,200.055Z" transform="translate(-137.19 -166.21)" fill="#525050"/>
      <path id="Path_27462" data-name="Path 27462" d="M168.957,232.055a7.828,7.828,0,0,1,1.772-.086c3.979.005,7.958-.009,11.937.007a1.467,1.467,0,0,1,1.369,1.946,1.513,1.513,0,0,1-1.55.981c-4.352-.005-8.7.009-13.055-.007a1.462,1.462,0,0,1-.473-2.842Z" transform="translate(-137.157 -192.339)" fill="#525050"/>
      <path id="Path_27463" data-name="Path 27463" d="M282.7,232.057a11.666,11.666,0,0,1,7.523,1.908,11.731,11.731,0,0,1-2.319,20.752,11.735,11.735,0,1,1-5.2-22.66m0,2.946a8.8,8.8,0,1,0,7.267,2.517A8.84,8.84,0,0,0,282.705,235Z" transform="translate(-222.105 -192.376)" fill="#525050"/>
      <path id="Path_27464" data-name="Path 27464" d="M168.972,264.051a7.739,7.739,0,0,1,1.774-.086c3.977.005,7.958-.009,11.937.007a1.467,1.467,0,0,1,1.367,1.946,1.511,1.511,0,0,1-1.552.981c-4.352-.005-8.7.009-13.053-.007a1.462,1.462,0,0,1-.473-2.842Z" transform="translate(-137.172 -218.465)" fill="#525050"/>
      <path id="Path_27465" data-name="Path 27465" d="M322.214,264.169a1.536,1.536,0,0,1,2.245,1.224,2.094,2.094,0,0,1,1.077.574,1.47,1.47,0,0,1-.183,2.062c-.514.457-1.249.316-1.877.4a2.945,2.945,0,0,1,2.394,3.084,3.1,3.1,0,0,1-1.348,2.3c-.174.609-.174,1.392-.844,1.712a1.536,1.536,0,0,1-2.247-1.222,2.123,2.123,0,0,1-1.075-.574,1.473,1.473,0,0,1,.182-2.066c.514-.453,1.249-.312,1.877-.391a2.96,2.96,0,0,1-2.4-2.888,3.067,3.067,0,0,1,1.356-2.493C321.541,265.27,321.543,264.488,322.214,264.169Z" transform="translate(-261.305 -218.473)" fill="#525050"/>
      <path id="Path_27466" data-name="Path 27466" d="M168.969,296.07a2.8,2.8,0,0,1,.848-.09c4.287.013,8.577-.007,12.864.011a1.464,1.464,0,0,1,1.409,1.8,1.5,1.5,0,0,1-1.594,1.13H169.627a1.514,1.514,0,0,1-1.554-.981A1.47,1.47,0,0,1,168.969,296.07Z" transform="translate(-137.168 -244.613)" fill="#525050"/>
      <path id="Path_27467" data-name="Path 27467" d="M264.969,376.07a2.792,2.792,0,0,1,.846-.09c7.224.013,14.449-.007,21.672.011a1.465,1.465,0,0,1,1.409,1.8,1.505,1.505,0,0,1-1.592,1.128H265.625a1.514,1.514,0,0,1-1.552-.981A1.47,1.47,0,0,1,264.969,376.07Z" transform="translate(-215.557 -309.937)" fill="#525050"/>
    </g>
    <g id="_d0d2d4ff" data-name="#d0d2d4ff" transform="translate(2.927 18.928)">
      <path id="Path_27468" data-name="Path 27468" d="M20.662,33.051a8.8,8.8,0,0,1,12.572,5.377,20.218,20.218,0,0,1,.341,5.337q-8.8.006-17.608,0a20.386,20.386,0,0,1,.338-5.339A8.8,8.8,0,0,1,20.662,33.051Z" transform="translate(-15.958 -32.031)" fill="#d0d2d4"/>
      <path id="Path_27469" data-name="Path 27469" d="M183.995,152q17.612-.005,35.222,0c0,.978,0,1.954,0,2.932q-17.609,0-35.22,0Q183.991,153.463,183.995,152Z" transform="translate(-153.166 -129.987)" fill="#d0d2d4"/>
      <path id="Path_27470" data-name="Path 27470" d="M222.6,432q22.686,0,45.37,0a10.3,10.3,0,0,1-10.341,8.8q-19.475-.008-38.951-.009A12.081,12.081,0,0,0,222.6,432Z" transform="translate(-181.49 -358.621)" fill="#d0d2d4"/>
    </g>
    <g id="_e9eef2ff" data-name="#e9eef2ff" transform="translate(19.56 18.921)">
      <path id="Path_27471" data-name="Path 27471" d="M106.62,32q25.353-.028,50.7-.007a8.818,8.818,0,0,1,8.826,7.175,16.046,16.046,0,0,1,.163,3.1q0,30.086,0,60.173-18.352.008-36.7.007a1.541,1.541,0,0,0-1.457,1.818,9.462,9.462,0,0,1-1.732,6.348,8.8,8.8,0,0,1-15.034-1.5,9,9,0,0,1-.842-3.919q0-31.186,0-62.375a19.941,19.941,0,0,0-.277-4.546A12.289,12.289,0,0,0,106.62,32m14.2,5.85q-.014,4.417,0,8.833a1.459,1.459,0,0,0,2.906.174c.048-.55.017-1.1.022-1.657a8.918,8.918,0,0,0,2.878-.235,4.4,4.4,0,0,0-1.4-8.569c-.987,0-1.972-.015-2.959.006a1.455,1.455,0,0,0-1.447,1.447m13.282-.464c-.934,2.315-1.847,4.636-2.785,6.949a5.755,5.755,0,0,0-.207,2.521A1.463,1.463,0,0,0,133.171,48a1.683,1.683,0,0,0,.892-1.325q1.428-.011,2.858,0a1.9,1.9,0,0,0,.565,1.119,1.468,1.468,0,0,0,2.062-.183,2.412,2.412,0,0,0,.354-1.673,3.49,3.49,0,0,0-.237-1.6c-.937-2.313-1.851-4.636-2.785-6.949a1.469,1.469,0,0,0-2.778,0m9.708-.906a1.5,1.5,0,0,0-.981,1.552c.005,2.884-.011,5.768.007,8.652a1.46,1.46,0,0,0,2.921,0q.019-4.417,0-8.835a1.469,1.469,0,0,0-1.946-1.369m5.869,0a1.5,1.5,0,0,0-.98,1.552c.006,2.882-.009,5.766.007,8.65a1.456,1.456,0,0,0,1.446,1.446,9.415,9.415,0,0,0,3.381-.314A5.866,5.866,0,0,0,154.759,37.3a7.474,7.474,0,0,0-5.078-.818M118.86,51.158a1.455,1.455,0,0,0-.974,1.367c-.017,1.9,0,3.81-.006,5.716a1.526,1.526,0,0,0,.629,1.369,3.023,3.023,0,0,0,1.757.27q18.536-.008,37.071,0a1.492,1.492,0,0,0,1.629-1.453q.019-2.95,0-5.9a1.49,1.49,0,0,0-1.631-1.455h-36.7a7.844,7.844,0,0,0-1.774.086m0,11.741a1.473,1.473,0,0,0-.712,2.222,1.663,1.663,0,0,0,1.558.631c12.605-.013,25.21.007,37.814-.011a1.468,1.468,0,0,0,1.413-1.8,1.5,1.5,0,0,0-1.594-1.13H120.632a7.834,7.834,0,0,0-1.772.086m0,5.871a1.462,1.462,0,0,0,.473,2.842c4.352.017,8.7,0,13.055.007a1.513,1.513,0,0,0,1.55-.981,1.467,1.467,0,0,0-1.369-1.946c-3.979-.017-7.958,0-11.937-.007a7.829,7.829,0,0,0-1.772.086m28.8-.035a11.733,11.733,0,1,0,12.3,8.351,11.848,11.848,0,0,0-4.773-6.443,11.666,11.666,0,0,0-7.523-1.908m-28.8,5.905a1.462,1.462,0,0,0,.473,2.842c4.352.017,8.7,0,13.053.007a1.512,1.512,0,0,0,1.552-.981,1.467,1.467,0,0,0-1.367-1.946c-3.979-.017-7.96,0-11.937-.007a7.739,7.739,0,0,0-1.774.086m0,5.871a1.47,1.47,0,0,0-.9,1.868,1.514,1.514,0,0,0,1.554.981h12.868a1.5,1.5,0,0,0,1.594-1.13,1.464,1.464,0,0,0-1.409-1.8c-4.287-.018-8.577,0-12.864-.011a2.8,2.8,0,0,0-.848.09m17.612,14.676a1.47,1.47,0,0,0-.9,1.868,1.514,1.514,0,0,0,1.552.981h21.677a1.505,1.505,0,0,0,1.592-1.128,1.465,1.465,0,0,0-1.409-1.8c-7.223-.018-14.447,0-21.672-.011A2.791,2.791,0,0,0,136.472,95.188Z" transform="translate(-106.62 -31.991)" fill="#e9eef2"/>
      <path id="Path_27472" data-name="Path 27472" d="M200,71.942c.8.059,1.734-.211,2.407.343a1.471,1.471,0,0,1,0,2.244c-.673.554-1.609.288-2.407.345C200,73.9,200,72.92,200,71.942Z" transform="translate(-182.867 -64.6)" fill="#e9eef2"/>
      <path id="Path_27473" data-name="Path 27473" d="M352,71.86a3.081,3.081,0,0,1,2.392,1.288,2.921,2.921,0,0,1-.429,3.832,3.2,3.2,0,0,1-1.963.8Q351.971,74.821,352,71.86Z" transform="translate(-306.972 -64.546)" fill="#e9eef2"/>
      <path id="Path_27474" data-name="Path 27474" d="M259.88,87.9a16.877,16.877,0,0,1,.756-1.814,16.877,16.877,0,0,1,.756,1.814Q260.635,87.913,259.88,87.9Z" transform="translate(-231.764 -76.165)" fill="#e9eef2"/>
    </g>
    <g id="_ffd33aff" data-name="#ffd33aff" transform="translate(52.834 58.545)">
      <path id="Path_27475" data-name="Path 27475" d="M295.762,248.047a8.8,8.8,0,1,1-4.511,1.906,8.82,8.82,0,0,1,4.511-1.906m.308,3.069c-.671.319-.673,1.1-.844,1.713a3.067,3.067,0,0,0-1.356,2.493,2.96,2.96,0,0,0,2.4,2.888c-.627.079-1.363-.062-1.877.391a1.473,1.473,0,0,0-.182,2.066,2.123,2.123,0,0,0,1.075.574,1.536,1.536,0,0,0,2.247,1.222c.67-.319.67-1.1.844-1.712a3.1,3.1,0,0,0,1.348-2.3,2.945,2.945,0,0,0-2.394-3.084c.627-.081,1.363.061,1.877-.4a1.47,1.47,0,0,0,.183-2.062,2.094,2.094,0,0,0-1.077-.574A1.536,1.536,0,0,0,296.07,251.116Z" transform="translate(-287.995 -247.981)" fill="#ffd33a"/>
    </g>
  </g>
</svg>
