<svg id="Layer_1" data-name="Layer 1" xmlns="http://www.w3.org/2000/svg" viewBox="0 0 512 512"><defs><style>.cls-1{fill:#c0ccdd;}.cls-2{fill:#dae2f2;}.cls-3{fill:#9ea7b7;}.cls-4{fill:#50b9ff;}.cls-5{fill:#f7818f;}.cls-6{fill:#3eb38a;}.cls-7{opacity:0.06;}</style></defs><title>notebook-network-flat</title><path class="cls-1" d="M455.35,328.73a6.57,6.57,0,0,1-6.22-8.65A201.83,201.83,0,0,0,459.49,256c0-56.42-22.63-109-63.72-147.92a6.57,6.57,0,0,1,9-9.53C448.53,140,472.62,195.94,472.62,256a214.77,214.77,0,0,1-11,68.25A6.56,6.56,0,0,1,455.35,328.73Z"/><path class="cls-1" d="M56.65,328.73a6.56,6.56,0,0,1-6.22-4.49,214.77,214.77,0,0,1-11-68.25c0-60.06,24.08-116,67.81-157.44a6.57,6.57,0,0,1,9,9.53C75.14,147,52.51,199.58,52.51,256a201.85,201.85,0,0,0,10.36,64.09,6.57,6.57,0,0,1-6.22,8.65Z"/><path class="cls-1" d="M256,472.62c-4.53,0-9.06-.13-13.53-.41a6.56,6.56,0,0,1-6.15-6.95,6.64,6.64,0,0,1,6.95-6.15,213.72,213.72,0,0,0,25.46,0,6.56,6.56,0,0,1,.79,13.1C265.06,472.48,260.53,472.62,256,472.62Z"/><path class="cls-2" d="M354.46,98.46a46,46,0,0,1-45.95,45.95h-105a46,46,0,0,1-45.95-45.95,19.75,19.75,0,0,1,19.69-19.69H334.77A19.75,19.75,0,0,1,354.46,98.46Z"/><rect class="cls-3" x="242.87" y="78.77" width="26.26" height="13.13"/><path class="cls-2" d="M196.92,466.05A46,46,0,0,1,151,512h-105A46,46,0,0,1,0,466.05a19.75,19.75,0,0,1,19.69-19.69H177.23A19.75,19.75,0,0,1,196.92,466.05Z"/><rect class="cls-3" x="85.33" y="446.36" width="26.26" height="13.13"/><path class="cls-2" d="M512,466.05A46,46,0,0,1,466.05,512H361a46,46,0,0,1-45.95-45.95,19.75,19.75,0,0,1,19.69-19.69H492.31A19.75,19.75,0,0,1,512,466.05Z"/><rect class="cls-3" x="400.41" y="446.36" width="26.26" height="13.13"/><path class="cls-4" d="M328.21,39.38V78.77H183.79V39.38A39.42,39.42,0,0,1,223.18,0h65.64A39.42,39.42,0,0,1,328.21,39.38Z"/><path class="cls-5" d="M170.67,407v39.38H26.26V407a39.42,39.42,0,0,1,39.38-39.38h65.64A39.42,39.42,0,0,1,170.67,407Z"/><path class="cls-6" d="M485.74,407v39.38H341.33V407a39.42,39.42,0,0,1,39.38-39.38h65.64A39.42,39.42,0,0,1,485.74,407Z"/><g class="cls-7"><path d="M354.46,98.46a46,46,0,0,1-45.95,45.95H256V0h32.82a39.42,39.42,0,0,1,39.38,39.38V78.77h6.56A19.75,19.75,0,0,1,354.46,98.46Z"/></g><g class="cls-7"><path d="M512,466.05A46,46,0,0,1,466.05,512H413.54V367.59h32.82A39.42,39.42,0,0,1,485.74,407v39.38h6.56A19.75,19.75,0,0,1,512,466.05Z"/></g><g class="cls-7"><path d="M196.92,466.05A46,46,0,0,1,151,512H98.46V367.59h32.82A39.42,39.42,0,0,1,170.67,407v39.38h6.56A19.75,19.75,0,0,1,196.92,466.05Z"/></g></svg>