<svg xmlns="http://www.w3.org/2000/svg" width="27.962" height="28" viewBox="0 0 27.962 28">
  <g id="_000000ff" data-name="#000000ff" transform="translate(-0.249)">
    <path id="Path_19707" data-name="Path 19707" d="M7.934,0h9.973a2.753,2.753,0,0,1,1.685.837c.764.816,1.525,1.637,2.31,2.433a2.574,2.574,0,0,1,.813,1.755c.04,1.382-.015,2.763.026,4.145,1.249.068,2.631-.256,3.751.463a3.589,3.589,0,0,1,1.72,2.806V24.6A3.549,3.549,0,0,1,25.1,28H16.651A3.5,3.5,0,0,1,14.2,26.641a3.766,3.766,0,0,1-.715-2.357c-.123,0-.368,0-.492,0-.123.329-.262.654-.417.969a1.7,1.7,0,0,1,.245,1.639,1.565,1.565,0,0,1-1.494.89c-2.439,0-4.877,0-7.315,0A3.774,3.774,0,0,1,.383,25.063a3.839,3.839,0,0,1,.895-3.614,3.817,3.817,0,0,1,2.273-1.132,2.63,2.63,0,0,1,.385-1.332,1.608,1.608,0,0,1,.076-2.1c.391-.461,1.03-.415,1.575-.441.008-4.62-.006-9.242.006-13.862A2.641,2.641,0,0,1,7.934,0M7.109,1.263a1.74,1.74,0,0,0-.625,1.472q0,6.866,0,13.735c1.665,0,3.33-.008,4.994,0a1.423,1.423,0,0,1,1.424,1.173,1.685,1.685,0,0,1-.359,1.345,1.619,1.619,0,0,1,0,2.08,1.628,1.628,0,0,1-.008,2.091c.044.062.129.189.173.253.262,0,.525,0,.787,0,.008-3.651-.011-7.3.009-10.95a3.4,3.4,0,0,1,3.278-3.288c1.686-.009,3.374,0,5.061,0,0-1.456,0-2.913,0-4.369-1.126-.067-2.258.032-3.383-.05-.28-.081-.26-.4-.272-.628,0-1.074.006-2.15,0-3.225-3.255,0-6.512,0-9.767,0a1.89,1.89,0,0,0-1.324.371m11.95.359c-.018.753-.006,1.507-.011,2.26.743.012,1.485.011,2.228,0-.75-.744-1.418-1.572-2.217-2.264m-2.969,8.491a2.6,2.6,0,0,0-1.758,2.518c0,4.008-.009,8.017,0,12.026a2.562,2.562,0,0,0,2.459,2.5q4.033.03,8.07,0a2.564,2.564,0,0,0,2.477-2.525q.014-6.085,0-12.171a2.606,2.606,0,0,0-2.628-2.5c-2.535,0-5.072,0-7.607,0a2.8,2.8,0,0,0-1.015.146M4.51,17.684c-.192.289.072.572.2.819,1.948.058,3.9.006,5.845.027a6.415,6.415,0,0,0,1.16-.047.627.627,0,0,0,.256-.877.874.874,0,0,0-.8-.3c-1.984.008-3.969,0-5.953,0a.7.7,0,0,0-.709.368m-.055,2.627a7.507,7.507,0,0,1,2.129.16,8.181,8.181,0,0,0,2.455.164c.842-.02,1.686.041,2.526-.026a.6.6,0,0,0,.359-.974c-.227-.26-.6-.212-.905-.224-1.98.017-3.96-.014-5.939.014-.484-.021-.691.473-.624.886m.505.863a2.918,2.918,0,1,0,1.476,5.632,2.919,2.919,0,0,0-1.476-5.632M1.686,22.219l.528,0c.2-.3.423-.6.644-.886a3.958,3.958,0,0,0-1.172.881m6.6-.7a6.809,6.809,0,0,1,.732,1.205c.873-.014,1.75.044,2.622-.023.572-.142.543-1.129-.07-1.158-1.093-.056-2.19,0-3.284-.024M1.225,23.053c-.041.212-.081.425-.122.639q.324,0,.648,0c.046-.216.093-.431.14-.647-.222,0-.444,0-.667,0m8.013.552c0,.394-.018.79-.052,1.182.808-.018,1.621.038,2.427-.024.595-.052.575-1.055,0-1.134-.791-.059-1.586,0-2.378-.024m-8.112.922c.049.224.1.449.142.674.225,0,.45,0,.677,0-.055-.227-.11-.455-.163-.682-.219,0-.437,0-.656,0M8.87,25.695A5.717,5.717,0,0,1,7.9,26.921c1.23-.044,2.464.041,3.692-.04.581-.088.628-1.058.03-1.15-.915-.088-1.838-.012-2.756-.037m-7.035.368a8.2,8.2,0,0,0,1.041.709q-.278-.37-.558-.737Z" transform="translate(0)"/>
    <path id="Path_19708" data-name="Path 19708" d="M56.429,37.971c-.228-.222-.313-.712.087-.781,2.173-.05,4.349,0,6.522-.023a6.972,6.972,0,0,1,1.155.044c.283.21.166.772-.222.743C61.458,37.984,58.942,37.946,56.429,37.971Z" transform="translate(-47.467 -31.509)"/>
    <path id="Path_19709" data-name="Path 19709" d="M115.172,37.207a5.193,5.193,0,0,1,1.625-.05c.033.1.1.3.137.4-.046.087-.134.259-.178.345a10.637,10.637,0,0,1-1.427-.006A.447.447,0,0,1,115.172,37.207Z" transform="translate(-97.351 -31.469)"/>
    <path id="Path_19710" data-name="Path 19710" d="M55.58,50.725c.172-.21.347-.469.659-.409.546.052,1.3-.219,1.63.367-.052.105-.157.313-.208.417a8.651,8.651,0,0,1-1.707.012C55.763,51.074,55.708,50.846,55.58,50.725Z" transform="translate(-46.911 -42.643)"/>
    <path id="Path_19711" data-name="Path 19711" d="M75.558,50.782c-.014-.339.4-.415.662-.393,2.237.009,4.475-.008,6.711.008.257-.041.4.175.517.361-.044.105-.129.317-.173.422-2.351.082-4.707.012-7.059.038C75.94,51.244,75.478,51.159,75.558,50.782Z" transform="translate(-63.841 -42.718)"/>
    <path id="Path_19712" data-name="Path 19712" d="M59.644,60.326c.105-.222.391-.143.586-.2.056.23.11.46.16.691.45.038,1.374.3.9.9-.533.1-1.059-.353-1.6-.12a.622.622,0,0,0-.146,1.085,14.111,14.111,0,0,1,1.447.682,1.733,1.733,0,0,1,.391,2.048,1.569,1.569,0,0,1-.98.752.882.882,0,0,1-.394.744.787.787,0,0,1-.473-.744c-.409-.155-.9-.288-1.1-.72-.177-.282.177-.461.336-.624.37.364.828.775,1.4.625.72-.075.838-1.155.271-1.5s-1.335-.414-1.724-1a1.436,1.436,0,0,1,.817-2.086A4.206,4.206,0,0,1,59.644,60.326Z" transform="translate(-49.287 -50.98)"/>
    <path id="Path_19713" data-name="Path 19713" d="M101.088,72.245a1.462,1.462,0,0,1,1.216-.482c2.435,0,4.87,0,7.306,0a1.592,1.592,0,0,1,1.37.485,2.414,2.414,0,0,1,.339,1.688,2.578,2.578,0,0,1-.233,1.47,1.472,1.472,0,0,1-1.332.638c-1.427-.008-2.856.012-4.282-.009-.289.044-.4-.259-.549-.435.161-.154.285-.417.549-.385,1.426-.03,2.853,0,4.279-.011.265,0,.657-.064.7-.383a12.984,12.984,0,0,0,.009-1.788c-.011-.348-.408-.461-.7-.44q-3.734,0-7.47,0c-.344-.046-.743.169-.7.558a6.61,6.61,0,0,0,.084,1.844c.622.453,1.467.04,2.158.275a.4.4,0,0,1-.18.758,5.01,5.01,0,0,1-2.217-.187,1.528,1.528,0,0,1-.7-1.447C100.781,73.675,100.584,72.841,101.088,72.245Z" transform="translate(-85.195 -60.838)"/>
    <path id="Path_19714" data-name="Path 19714" d="M101.138,104.681a3.745,3.745,0,0,1,1.612-.158,1.083,1.083,0,0,1,1.087.523,9.925,9.925,0,0,1,.041,1.829.817.817,0,0,1-.82.772,6.841,6.841,0,0,1-1.808-.068c-.52-.207-.543-.84-.52-1.313.026-.534-.129-1.246.409-1.584m.44.677q0,.737,0,1.475.746,0,1.493,0c.011-.488.012-.978.011-1.467C102.58,105.357,102.08,105.356,101.578,105.359Z" transform="translate(-85.184 -88.61)"/>
    <path id="Path_19715" data-name="Path 19715" d="M125.654,104.616a5.426,5.426,0,0,1,1.783-.1.863.863,0,0,1,.878.791,7.131,7.131,0,0,1-.052,1.783c-.192.609-.921.56-1.432.56-.446-.029-.963.078-1.345-.21-.414-.383-.283-1-.31-1.5,0-.466-.027-1.1.478-1.324m.37.723c0,.492,0,.982,0,1.473.49,0,.978,0,1.468,0,0-.492,0-.982,0-1.473C127,105.34,126.512,105.34,126.024,105.339Z" transform="translate(-105.916 -88.59)"/>
    <path id="Path_19716" data-name="Path 19716" d="M150.1,104.689a3.144,3.144,0,0,1,1.455-.164c.461-.026,1.042.046,1.236.54a9.363,9.363,0,0,1,.041,1.825.848.848,0,0,1-.965.773,4.863,4.863,0,0,1-1.745-.126c-.5-.3-.432-.928-.432-1.426s-.079-1.118.411-1.421m.431.676c0,.49,0,.982,0,1.472.508.009,1.015.008,1.522-.026-.014-.478-.015-.957-.012-1.435C151.541,105.36,151.038,105.358,150.534,105.365Z" transform="translate(-126.699 -88.615)"/>
    <path id="Path_19717" data-name="Path 19717" d="M101.44,128.75a8.783,8.783,0,0,1,1.777.018.911.911,0,0,1,.651,1.052c-.044.68.231,1.637-.543,2a9.948,9.948,0,0,1-2,.015c-.829-.313-.6-1.335-.616-2.024a.946.946,0,0,1,.727-1.062m.116.813c0,.5,0,1,.011,1.5a8.037,8.037,0,0,0,1.507-.065c-.014-.476-.015-.953-.012-1.427C102.558,129.561,102.057,129.559,101.555,129.562Z" transform="translate(-85.162 -109.127)"/>
    <path id="Path_19718" data-name="Path 19718" d="M125.837,128.762a8.086,8.086,0,0,1,1.779,0,.928.928,0,0,1,.691,1.062c-.04.577.149,1.251-.225,1.748-.3.4-.848.274-1.28.3-.478-.041-1.09.129-1.43-.309-.356-.507-.178-1.173-.216-1.75a.926.926,0,0,1,.682-1.052m.158.8c0,.488,0,.977-.008,1.465a13.626,13.626,0,0,0,1.475.035c.008-.505.008-1.01-.008-1.514C126.967,129.561,126.482,129.563,125.995,129.563Z" transform="translate(-105.888 -109.126)"/>
    <path id="Path_19719" data-name="Path 19719" d="M150.619,128.731c.659-.032,1.5-.208,2,.347.307.309.245.775.259,1.172-.017,1.319.014,2.64-.012,3.961a1.147,1.147,0,0,1-1.122,1.126c-.568.006-1.258.117-1.672-.371a1.963,1.963,0,0,1-.348-1.519c.015-1.222-.012-2.445.009-3.667a1.094,1.094,0,0,1,.89-1.048m.085.828c-.215.068-.114.368-.151.534.006,1.275,0,2.55,0,3.826a.927.927,0,0,0,.219.633c.4-.088,1.138.205,1.269-.345.062-.761.006-1.526.023-2.289a15.607,15.607,0,0,0-.076-2.386A10.659,10.659,0,0,0,150.7,129.559Z" transform="translate(-126.722 -109.098)"/>
    <path id="Path_19720" data-name="Path 19720" d="M28.09,143.676a.617.617,0,0,1,.727.379c.23.143.6.225.592.565-.065.137-.137.271-.213.4a3.525,3.525,0,0,0-1.059-.14l-.033.212c.39.364,1.076.39,1.286.95a1.246,1.246,0,0,1-.572,1.569.613.613,0,0,1-.746.412c-.061-.135-.122-.271-.183-.4-.239-.166-.566-.278-.671-.574-.111-.312.262-.709.555-.475.222.169.67.464.858.125.173-.475-.444-.528-.732-.7a.984.984,0,0,1-.476-1.437A3.532,3.532,0,0,0,28.09,143.676Z" transform="translate(-22.848 -121.796)"/>
    <path id="Path_19721" data-name="Path 19721" d="M101.46,151.689c.764.033,1.857-.329,2.339.464a7.232,7.232,0,0,1,.073,1.825.929.929,0,0,1-1.14.828c-.627-.056-1.49.222-1.873-.44a4.206,4.206,0,0,1-.132-1.628.933.933,0,0,1,.733-1.048m.111.808c0,.49-.023.98.015,1.468a3.562,3.562,0,0,0,1.409-.033,4.648,4.648,0,0,0,.078-1.424C102.573,152.5,102.072,152.494,101.571,152.5Z" transform="translate(-85.176 -128.56)"/>
    <path id="Path_19722" data-name="Path 19722" d="M125.851,151.754a5.86,5.86,0,0,1,1.963.049c.632.265.505,1.055.519,1.605.03.52-.009,1.211-.6,1.409a11.292,11.292,0,0,1-1.843.018.833.833,0,0,1-.7-.8,11.085,11.085,0,0,1,0-1.525.808.808,0,0,1,.656-.759m.164.794c0,.5,0,1,0,1.5h1.464q0-.751,0-1.5Q126.75,152.546,126.015,152.549Z" transform="translate(-105.909 -128.612)"/>
  </g>
</svg>
