<svg xmlns="http://www.w3.org/2000/svg" width="26" height="31.18" viewBox="0 0 26 31.18">
  <g id="Group_7455" data-name="Group 7455" transform="translate(-5354.5 -2255.41)">
    <g id="_000000ff" data-name="#000000ff" transform="translate(5341.748 2255.41)">
      <path id="Path_19723" data-name="Path 19723" d="M15.74,0h20a3.33,3.33,0,0,1,2.633,1.753,6.072,6.072,0,0,1,.377,2.941c-.008,7.74,0,15.482-.006,23.222a3.3,3.3,0,0,1-2.981,3.265H15.74a3.3,3.3,0,0,1-2.986-3.257q0-12.334,0-24.669A3.311,3.311,0,0,1,15.74,0m-.01,1.331a2.019,2.019,0,0,0-1.7,2.115q-.009,11.625,0,23.251a4.445,4.445,0,0,0,.273,2.168,1.924,1.924,0,0,0,1.759,1.015q9.684.006,19.368,0a2.012,2.012,0,0,0,2.038-2.156q0-11.622,0-23.244a3.728,3.728,0,0,0-.438-2.423A2.025,2.025,0,0,0,35.22,1.3C28.723,1.327,22.224,1.274,15.729,1.331Z"/>
      <path id="Path_19724" data-name="Path 19724" d="M31.862,51.485c.114-.428.642-.373.984-.385,2.454.016,4.905-.01,7.359.012a.59.59,0,0,1,.681.589,6.9,6.9,0,0,1-.041,1.6.663.663,0,0,1-1.143.084c-.079-.33-.094-.673-.161-1.007-.85-.047-1.7,0-2.554-.014,0,2.162,0,4.322,0,6.485.432.059,1.109-.082,1.276.461a.673.673,0,0,1-.705.88c-.87.012-1.744.047-2.613-.022a.655.655,0,0,1-.179-1.215,4.878,4.878,0,0,1,.96-.108q0-3.24,0-6.481-1.314,0-2.627,0c-.09.4.134,1.05-.336,1.235a.623.623,0,0,1-.929-.454A5.587,5.587,0,0,1,31.862,51.485Z" transform="translate(-15.154 -40.686)"/>
      <path id="Path_19725" data-name="Path 19725" d="M89.665,51.134c1.828-.094,3.666-.035,5.5-.031a.625.625,0,0,1,.187,1.217c-1.638.079-3.281,0-4.922.037-.338-.047-.819.1-1.029-.253A.639.639,0,0,1,89.665,51.134Z" transform="translate(-60.93 -40.672)"/>
      <path id="Path_19726" data-name="Path 19726" d="M89.724,70.2c1.814-.1,3.642-.041,5.46-.031a.634.634,0,0,1,.187,1.235c-1.83.067-3.666.043-5.5.012C89.213,71.436,89.1,70.335,89.724,70.2Z" transform="translate(-60.958 -55.846)"/>
      <path id="Path_19727" data-name="Path 19727" d="M89.713,89.262c1.8-.112,3.623-.043,5.431-.037a.644.644,0,0,1,.128,1.274c-1.535.092-3.077,0-4.616.041-.391-.035-.87.088-1.18-.222A.64.64,0,0,1,89.713,89.262Z" transform="translate(-60.939 -71.021)"/>
      <path id="Path_19728" data-name="Path 19728" d="M32.347,108.344c5.4-.1,10.807,0,16.21-.045.475.022,1.107-.1,1.41.375.275.509-.273,1.037-.781.972-5.443.014-10.887,0-16.33.008-.357.012-.813-.047-.976-.418A.63.63,0,0,1,32.347,108.344Z" transform="translate(-15.175 -86.229)"/>
      <path id="Path_19729" data-name="Path 19729" d="M32.33,127.469c5.4-.088,10.817,0,16.226-.041.479.02,1.082-.1,1.406.357a.674.674,0,0,1-.416.937,13.628,13.628,0,0,1-1.8.047q-7.45,0-14.9,0c-.348,0-.821-.02-.972-.4A.633.633,0,0,1,32.33,127.469Z" transform="translate(-15.168 -101.459)"/>
    </g>
    <text id="NOTICE" transform="translate(5360.5 2262.556)" fill="#333" font-size="4" font-family="Poppins-Medium, Poppins" font-weight="500"><tspan x="0" y="0">NOTICE</tspan></text>
  </g>
</svg>
