<svg xmlns="http://www.w3.org/2000/svg" width="22.733" height="26.232" viewBox="0 0 22.733 26.232">
  <g id="_000000ff" data-name="#000000ff" transform="translate(-47.998 -15.932)">
    <path id="Path_19572" data-name="Path 19572" d="M160.566,16.633a2.193,2.193,0,0,1,1.6-.7q6.066,0,12.132,0a2.206,2.206,0,0,1,2.192,1.534,2.526,2.526,0,0,1,.1.814q0,3.088,0,6.175a4.089,4.089,0,0,1-.119,1.362,2.19,2.19,0,0,1-1.9,1.472c-.492.021-.986,0-1.479.009-.005.749.011,1.5-.008,2.246a.436.436,0,0,1-.709.273c-.983-.837-1.96-1.681-2.943-2.519h-7.051a2.563,2.563,0,0,1-.923-.12,2.2,2.2,0,0,1-1.481-2.122q0-3.47,0-6.94a2.183,2.183,0,0,1,.587-1.487m.385.99a1.688,1.688,0,0,0-.1.715c0,2.279,0,4.557,0,6.835a1.314,1.314,0,0,0,1.307,1.254c2.5.007,5-.009,7.493.008a.738.738,0,0,1,.372.223c.728.628,1.461,1.251,2.19,1.879,0-.559,0-1.118,0-1.676a.431.431,0,0,1,.428-.43c.567-.007,1.134,0,1.7,0a1.386,1.386,0,0,0,.592-.117,1.315,1.315,0,0,0,.772-1.2c0-2.276,0-4.552,0-6.828a1.552,1.552,0,0,0-.119-.707,1.313,1.313,0,0,0-1.19-.77q-6.124,0-12.246,0A1.316,1.316,0,0,0,160.951,17.623Z" transform="translate(-105.859 0)"/>
    <path id="Path_19573" data-name="Path 19573" d="M280.063,65.189a1.749,1.749,0,1,1,2.109,2.223c-.006.31,0,.62-.008.931a.434.434,0,0,1-.869,0c0-.332-.007-.663,0-.995a.84.84,0,0,1,.6-.768.921.921,0,0,0,.626-.5.874.874,0,1,0-1.59-.724c-.113.21-.021.493-.206.668a.44.44,0,0,1-.689-.093A1.085,1.085,0,0,1,280.063,65.189Z" transform="translate(-219.305 -45.41)"/>
    <path id="Path_19574" data-name="Path 19574" d="M304.493,160.135a.432.432,0,1,1-.14.732A.435.435,0,0,1,304.493,160.135Z" transform="translate(-242.209 -136.296)"/>
    <path id="Path_19575" data-name="Path 19575" d="M48.209,241.251A2.2,2.2,0,0,1,50.183,240q6.1,0,12.192,0a2.191,2.191,0,0,1,2.234,2.183q0,3.471,0,6.944a2.211,2.211,0,0,1-.536,1.482,2.189,2.189,0,0,1-1.649.756q-3.635,0-7.27,0l-2.675,2.292a3.363,3.363,0,0,1-.333.27.434.434,0,0,1-.573-.128.583.583,0,0,1-.08-.361c0-.691,0-1.383,0-2.074-.456,0-.912,0-1.368,0A2.188,2.188,0,0,1,48,249.182q0-3.471,0-6.944a2.236,2.236,0,0,1,.211-.987m.762.437a1.828,1.828,0,0,0-.1.77q0,3.361,0,6.722a1.316,1.316,0,0,0,.811,1.211,2.347,2.347,0,0,0,.937.1c.439,0,.878,0,1.317,0a.432.432,0,0,1,.428.426c.008.56,0,1.12,0,1.68.782-.667,1.56-1.34,2.342-2.005.151-.136.366-.1.551-.1q3.58,0,7.161,0a1.317,1.317,0,0,0,1.31-1.309q0-3.473,0-6.945a1.317,1.317,0,0,0-1.368-1.363q-6.092,0-12.183,0A1.315,1.315,0,0,0,48.971,241.688Z" transform="translate(0 -211.822)"/>
    <path id="Path_19576" data-name="Path 19576" d="M96.32,287.976a3.844,3.844,0,0,1,.692-.027c.2.009.44-.042.609.1a.44.44,0,0,1,0,.669c-.2.165-.481.086-.719.1-.257-.017-.58.072-.769-.155A.439.439,0,0,1,96.32,287.976Z" transform="translate(-45.409 -257.15)"/>
    <path id="Path_19577" data-name="Path 19577" d="M144.294,288.005a.711.711,0,0,1,.2-.025h7.759a.453.453,0,0,1,.433.221.438.438,0,0,1-.132.575.789.789,0,0,1-.464.079q-3.8,0-7.6,0a.453.453,0,0,1-.448-.258A.438.438,0,0,1,144.294,288.005Z" transform="translate(-90.755 -257.182)"/>
    <path id="Path_19578" data-name="Path 19578" d="M96.321,319.973a3.919,3.919,0,0,1,.694-.026c.2.009.438-.042.605.1a.439.439,0,0,1,0,.671c-.2.162-.478.084-.715.1-.257-.017-.581.072-.77-.155A.439.439,0,0,1,96.321,319.973Z" transform="translate(-45.409 -287.4)"/>
    <path id="Path_19579" data-name="Path 19579" d="M144.292,319.986a.867.867,0,0,1,.257-.027q3.855,0,7.709,0a.44.44,0,1,1,0,.874H144.5a.454.454,0,0,1-.452-.255A.438.438,0,0,1,144.292,319.986Z" transform="translate(-90.758 -287.412)"/>
    <path id="Path_19580" data-name="Path 19580" d="M96.32,351.972a3.8,3.8,0,0,1,.693-.027c.2.009.439-.042.607.1a.439.439,0,0,1,0,.669c-.2.166-.481.086-.72.1-.257-.016-.583.072-.771-.158A.44.44,0,0,1,96.32,351.972Z" transform="translate(-45.408 -317.649)"/>
    <path id="Path_19581" data-name="Path 19581" d="M144.3,351.989a1.987,1.987,0,0,1,.474-.026h7.487a.447.447,0,0,1,.485.379.437.437,0,0,1-.43.493c-2.605.006-5.212,0-7.818,0a.453.453,0,0,1-.451-.259A.439.439,0,0,1,144.3,351.989Z" transform="translate(-90.759 -317.668)"/>
    <path id="Path_19582" data-name="Path 19582" d="M96.3,383.958a5.306,5.306,0,0,1,.8-.027c.2-.009.454-.007.576.19a.437.437,0,0,1-.294.678c-.314.017-.63.008-.945.005a.435.435,0,0,1-.14-.846Z" transform="translate(-45.383 -347.888)"/>
    <path id="Path_19583" data-name="Path 19583" d="M144.292,383.982a.893.893,0,0,1,.253-.026q3.853,0,7.706,0a.44.44,0,1,1,0,.874h-7.762a.454.454,0,0,1-.454-.257A.438.438,0,0,1,144.292,383.982Z" transform="translate(-90.754 -347.912)"/>
  </g>
</svg>
