<svg xmlns="http://www.w3.org/2000/svg" width="28.962" height="20.575" viewBox="0 0 28.962 20.575">
  <g id="_000000ff" data-name="#000000ff" transform="translate(0 -31.172)">
    <path id="Path_19730" data-name="Path 19730" d="M77.866,31.254a4.345,4.345,0,0,1,4.852,2.772,4.27,4.27,0,0,1-2.764,5.5,4.274,4.274,0,0,1-5.46-5.2,4.289,4.289,0,0,1,3.372-3.065m.013.952a3.307,3.307,0,0,0-2.2,4.835,3.363,3.363,0,1,0,4.952-4.288A3.435,3.435,0,0,0,77.88,32.206Z" transform="translate(-64.328 0)"/>
    <path id="Path_19731" data-name="Path 19731" d="M150.216,53.11a3.506,3.506,0,0,1,2.181.264,3.342,3.342,0,0,1,1.866,3.166,3.357,3.357,0,0,1-6.675.269,3.325,3.325,0,0,1,2.628-3.7m-.1.978a2.4,2.4,0,0,0,.99,4.666,2.471,2.471,0,0,0,2.231-2.22,2.428,2.428,0,0,0-1.114-2.188A2.68,2.68,0,0,0,150.115,54.088Z" transform="translate(-127.673 -18.922)"/>
    <path id="Path_19732" data-name="Path 19732" d="M20.495,54.645a3.322,3.322,0,1,1-2.884,3.369,3.366,3.366,0,0,1,2.884-3.369m-.234,1a2.391,2.391,0,0,0,.308,4.661,2.405,2.405,0,1,0-.308-4.661Z" transform="translate(-15.236 -20.272)"/>
    <path id="Path_19733" data-name="Path 19733" d="M8.8,101.092a8.158,8.158,0,0,1,5.612-2.4,8.169,8.169,0,0,1,5.536,2.18,6.077,6.077,0,0,1,3.089-1,5.743,5.743,0,0,1,4.09,1.507,5.82,5.82,0,0,1,1.836,3.768v2.118a1.224,1.224,0,0,1-1.08.993c-1.8.04-3.611-.028-5.415.028-.265.314-.077.823-.334,1.158a1.754,1.754,0,0,1-1.646.722q-6.07-.012-12.14,0a1.716,1.716,0,0,1-1.354-.517,1.847,1.847,0,0,1-.4-1.008c-1.793-.028-3.587.011-5.38-.016A1.291,1.291,0,0,1,0,107.649v-2.1a6.1,6.1,0,0,1,.846-2.608,5.678,5.678,0,0,1,3.6-2.565,5.805,5.805,0,0,1,4.358.715m4.461-1.336a6.9,6.9,0,0,0-5.682,6.117c-.013.944-.036,1.89,0,2.834a.528.528,0,0,0,.624.493c4.138.008,8.276,0,12.415.005.206-.019.455.023.614-.141.225-.185.2-.508.214-.769a12.576,12.576,0,0,0-.287-3.645,6.856,6.856,0,0,0-3.45-4.22,6.975,6.975,0,0,0-4.447-.674m7.336,1.808a8.665,8.665,0,0,1,1.338,2.426,8.53,8.53,0,0,1,.393,3.349c1.876.023,3.756.047,5.631-.012a6.316,6.316,0,0,0-.684-4.34,4.873,4.873,0,0,0-4.373-2.18,5.582,5.582,0,0,0-2.3.757M4.585,101.29a4.872,4.872,0,0,0-2.962,2.165,6.613,6.613,0,0,0-.613,4.231c1.876.024,3.752.018,5.628,0a12.286,12.286,0,0,1,.191-3.032,8.058,8.058,0,0,1,1.359-2.837A5.06,5.06,0,0,0,4.585,101.29Z" transform="translate(0 -58.422)"/>
  </g>
</svg>
