<svg id="_000000ff" data-name="#000000ff" xmlns="http://www.w3.org/2000/svg" width="25.002" height="25.002" viewBox="0 0 25.002 25.002">
  <path id="Path_19559" data-name="Path 19559" d="M12.373,0h.242a2.5,2.5,0,0,1,1.591.732c.534.531,1.063,1.066,1.6,1.6A2.45,2.45,0,0,1,18.581,3.39c.757,1.3,1.5,2.6,2.257,3.9A2.867,2.867,0,0,1,22.509,8.4a2.83,2.83,0,0,1,.539,1.658c0,1.14,0,2.28,0,3.42a2.575,2.575,0,0,1,1.057.115,1.511,1.511,0,0,1,.9,1.2V17.4a1.5,1.5,0,0,1-.9,1.233,2.571,2.571,0,0,1-1.056.117c0,1.156,0,2.312,0,3.468a2.85,2.85,0,0,1-1.472,2.432,2.975,2.975,0,0,1-1.231.35H13.688a.49.49,0,1,1,.079-.977h6.4a1.862,1.862,0,0,0,1.906-1.855c0-1.14,0-2.279,0-3.419-1.223,0-2.445,0-3.667,0a2.635,2.635,0,0,1,0-5.269c1.221,0,2.442,0,3.663,0,0-1.139,0-2.278,0-3.416A1.856,1.856,0,0,0,20.215,8.2q-8.667,0-17.334,0A1.871,1.871,0,0,0,1.6,8.677a1.923,1.923,0,0,0-.62,1.578c0,3.99,0,7.979,0,11.969a1.864,1.864,0,0,0,1.8,1.8c2.184.009,4.368,0,6.552.005a.487.487,0,0,1,.467.606A.5.5,0,0,1,9.363,25H2.706a2.879,2.879,0,0,1-2.037-1.01A2.9,2.9,0,0,1,0,22.34V9.892A2.917,2.917,0,0,1,.6,8.319a2.845,2.845,0,0,1,2.135-1.09c.5-.007,1,0,1.495,0Q7.466,3.98,10.709.745A2.483,2.483,0,0,1,12.373,0m-.52,1.109a3.313,3.313,0,0,0-.845.717q-2.7,2.7-5.4,5.4c.474,0,.947,0,1.421,0A.414.414,0,0,0,7.248,7.2l7.632-4.408c-.463-.462-.924-.927-1.388-1.388a1.469,1.469,0,0,0-1.639-.291M15.792,3.39,9.15,7.226q5.261,0,10.522,0C19.027,6.114,18.389,5,17.741,3.888a1.466,1.466,0,0,0-1.948-.5m2.345,11.1a1.66,1.66,0,0,0-.4,3.124,2.271,2.271,0,0,0,1.108.166c1.564,0,3.128,0,4.692,0a.488.488,0,0,0,.483-.483q.005-1.175,0-2.35a.487.487,0,0,0-.483-.483c-1.662,0-3.324,0-4.986,0A2.129,2.129,0,0,0,18.137,14.486Z"/>
  <path id="Path_19560" data-name="Path 19560" d="M366.747,319.97a.487.487,0,1,1-.18.826A.49.49,0,0,1,366.747,319.97Z" transform="translate(-348.516 -304.321)"/>
  <path id="Path_19561" data-name="Path 19561" d="M226.321,492.024a.49.49,0,0,1,.65.35.5.5,0,0,1-.4.594h-.132a.518.518,0,0,1-.387-.3A.489.489,0,0,1,226.321,492.024Z" transform="translate(-214.972 -467.966)"/>
</svg>
