<svg width="64" height="62" viewBox="0 0 64 62" fill="none" xmlns="http://www.w3.org/2000/svg">
<circle cx="32" cy="31" r="31" fill="#12B3F8"/>
<path d="M45.125 23.5C45.125 22.5054 44.7299 21.5516 44.0266 20.8484C43.3234 20.1451 42.3696 19.75 41.375 19.75H40.4375V18.8389C40.4375 18.3344 40.0496 17.9014 39.5451 17.8762C39.4184 17.8701 39.2917 17.8898 39.1728 17.9341C39.0538 17.9784 38.9451 18.0463 38.8533 18.1339C38.7614 18.2214 38.6882 18.3267 38.6383 18.4434C38.5883 18.56 38.5625 18.6856 38.5625 18.8125V19.75H25.4375V18.8389C25.4375 18.3344 25.0496 17.9014 24.5451 17.8762C24.4184 17.8701 24.2917 17.8898 24.1728 17.9341C24.0538 17.9784 23.9451 18.0463 23.8533 18.1339C23.7614 18.2214 23.6882 18.3267 23.6383 18.4434C23.5883 18.56 23.5625 18.6856 23.5625 18.8125V19.75H22.625C21.6304 19.75 20.6766 20.1451 19.9733 20.8484C19.2701 21.5516 18.875 22.5054 18.875 23.5V24.2031C18.875 24.2653 18.8997 24.3249 18.9436 24.3689C18.9876 24.4128 19.0472 24.4375 19.1094 24.4375H44.8906C44.9528 24.4375 45.0124 24.4128 45.0564 24.3689C45.1003 24.3249 45.125 24.2653 45.125 24.2031V23.5ZM18.875 40.375C18.875 41.3696 19.2701 42.3234 19.9733 43.0267C20.6766 43.7299 21.6304 44.125 22.625 44.125H41.375C42.3696 44.125 43.3234 43.7299 44.0266 43.0267C44.7299 42.3234 45.125 41.3696 45.125 40.375V26.4883C45.125 26.4417 45.1065 26.397 45.0735 26.364C45.0405 26.331 44.9958 26.3125 44.9492 26.3125H19.0508C19.0042 26.3125 18.9595 26.331 18.9265 26.364C18.8935 26.397 18.875 26.4417 18.875 26.4883V40.375ZM39.0312 28.1875C39.3094 28.1875 39.5813 28.27 39.8125 28.4245C40.0438 28.579 40.224 28.7986 40.3305 29.0556C40.4369 29.3126 40.4647 29.5953 40.4105 29.8681C40.3562 30.1409 40.2223 30.3915 40.0256 30.5881C39.829 30.7848 39.5784 30.9187 39.3056 30.973C39.0328 31.0272 38.7501 30.9994 38.4931 30.893C38.2361 30.7865 38.0165 30.6063 37.862 30.375C37.7075 30.1438 37.625 29.8719 37.625 29.5938C37.625 29.2208 37.7732 28.8631 38.0369 28.5994C38.3006 28.3357 38.6583 28.1875 39.0312 28.1875ZM39.0312 32.875C39.3094 32.875 39.5813 32.9575 39.8125 33.112C40.0438 33.2665 40.224 33.4861 40.3305 33.7431C40.4369 34.0001 40.4647 34.2828 40.4105 34.5556C40.3562 34.8284 40.2223 35.079 40.0256 35.2756C39.829 35.4723 39.5784 35.6062 39.3056 35.6605C39.0328 35.7147 38.7501 35.6869 38.4931 35.5805C38.2361 35.474 38.0165 35.2938 37.862 35.0625C37.7075 34.8313 37.625 34.5594 37.625 34.2813C37.625 33.9083 37.7732 33.5506 38.0369 33.2869C38.3006 33.0232 38.6583 32.875 39.0312 32.875ZM34.3438 28.1875C34.6219 28.1875 34.8938 28.27 35.125 28.4245C35.3563 28.579 35.5365 28.7986 35.643 29.0556C35.7494 29.3126 35.7772 29.5953 35.723 29.8681C35.6687 30.1409 35.5348 30.3915 35.3381 30.5881C35.1415 30.7848 34.8909 30.9187 34.6181 30.973C34.3453 31.0272 34.0626 30.9994 33.8056 30.893C33.5486 30.7865 33.329 30.6063 33.1745 30.375C33.02 30.1438 32.9375 29.8719 32.9375 29.5938C32.9375 29.2208 33.0857 28.8631 33.3494 28.5994C33.6131 28.3357 33.9708 28.1875 34.3438 28.1875ZM34.3438 32.875C34.6219 32.875 34.8938 32.9575 35.125 33.112C35.3563 33.2665 35.5365 33.4861 35.643 33.7431C35.7494 34.0001 35.7772 34.2828 35.723 34.5556C35.6687 34.8284 35.5348 35.079 35.3381 35.2756C35.1415 35.4723 34.8909 35.6062 34.6181 35.6605C34.3453 35.7147 34.0626 35.6869 33.8056 35.5805C33.5486 35.474 33.329 35.2938 33.1745 35.0625C33.02 34.8313 32.9375 34.5594 32.9375 34.2813C32.9375 33.9083 33.0857 33.5506 33.3494 33.2869C33.6131 33.0232 33.9708 32.875 34.3438 32.875ZM34.3438 37.5625C34.6219 37.5625 34.8938 37.645 35.125 37.7995C35.3563 37.954 35.5365 38.1736 35.643 38.4306C35.7494 38.6876 35.7772 38.9703 35.723 39.2431C35.6687 39.5159 35.5348 39.7665 35.3381 39.9631C35.1415 40.1598 34.8909 40.2937 34.6181 40.348C34.3453 40.4022 34.0626 40.3744 33.8056 40.268C33.5486 40.1615 33.329 39.9813 33.1745 39.75C33.02 39.5188 32.9375 39.2469 32.9375 38.9688C32.9375 38.5958 33.0857 38.2381 33.3494 37.9744C33.6131 37.7107 33.9708 37.5625 34.3438 37.5625ZM29.6562 32.875C29.9344 32.875 30.2063 32.9575 30.4375 33.112C30.6688 33.2665 30.849 33.4861 30.9555 33.7431C31.0619 34.0001 31.0897 34.2828 31.0355 34.5556C30.9812 34.8284 30.8473 35.079 30.6506 35.2756C30.454 35.4723 30.2034 35.6062 29.9306 35.6605C29.6578 35.7147 29.3751 35.6869 29.1181 35.5805C28.8611 35.474 28.6415 35.2938 28.487 35.0625C28.3325 34.8313 28.25 34.5594 28.25 34.2813C28.25 33.9083 28.3982 33.5506 28.6619 33.2869C28.9256 33.0232 29.2833 32.875 29.6562 32.875ZM29.6562 37.5625C29.9344 37.5625 30.2063 37.645 30.4375 37.7995C30.6688 37.954 30.849 38.1736 30.9555 38.4306C31.0619 38.6876 31.0897 38.9703 31.0355 39.2431C30.9812 39.5159 30.8473 39.7665 30.6506 39.9631C30.454 40.1598 30.2034 40.2937 29.9306 40.348C29.6578 40.4022 29.3751 40.3744 29.1181 40.268C28.8611 40.1615 28.6415 39.9813 28.487 39.75C28.3325 39.5188 28.25 39.2469 28.25 38.9688C28.25 38.5958 28.3982 38.2381 28.6619 37.9744C28.9256 37.7107 29.2833 37.5625 29.6562 37.5625ZM24.9688 32.875C25.2469 32.875 25.5188 32.9575 25.75 33.112C25.9813 33.2665 26.1615 33.4861 26.268 33.7431C26.3744 34.0001 26.4022 34.2828 26.348 34.5556C26.2937 34.8284 26.1598 35.079 25.9631 35.2756C25.7665 35.4723 25.5159 35.6062 25.2431 35.6605C24.9703 35.7147 24.6876 35.6869 24.4306 35.5805C24.1736 35.474 23.954 35.2938 23.7995 35.0625C23.645 34.8313 23.5625 34.5594 23.5625 34.2813C23.5625 33.9083 23.7107 33.5506 23.9744 33.2869C24.2381 33.0232 24.5958 32.875 24.9688 32.875ZM24.9688 37.5625C25.2469 37.5625 25.5188 37.645 25.75 37.7995C25.9813 37.954 26.1615 38.1736 26.268 38.4306C26.3744 38.6876 26.4022 38.9703 26.348 39.2431C26.2937 39.5159 26.1598 39.7665 25.9631 39.9631C25.7665 40.1598 25.5159 40.2937 25.2431 40.348C24.9703 40.4022 24.6876 40.3744 24.4306 40.268C24.1736 40.1615 23.954 39.9813 23.7995 39.75C23.645 39.5188 23.5625 39.2469 23.5625 38.9688C23.5625 38.5958 23.7107 38.2381 23.9744 37.9744C24.2381 37.7107 24.5958 37.5625 24.9688 37.5625Z" fill="white"/>
</svg>
