<svg width="64" height="62" viewBox="0 0 64 62" fill="none" xmlns="http://www.w3.org/2000/svg">
<circle cx="31" cy="31" r="31" fill="#F3322D"/>
<path d="M44.125 23.5C44.125 22.5054 43.7299 21.5516 43.0266 20.8484C42.3234 20.1451 41.3696 19.75 40.375 19.75H39.4375V18.8389C39.4375 18.3344 39.0496 17.9014 38.5451 17.8762C38.4184 17.8701 38.2917 17.8898 38.1728 17.9341C38.0538 17.9784 37.9451 18.0463 37.8533 18.1339C37.7614 18.2214 37.6882 18.3267 37.6383 18.4434C37.5883 18.56 37.5625 18.6856 37.5625 18.8125V19.75H24.4375V18.8389C24.4375 18.3344 24.0496 17.9014 23.5451 17.8762C23.4184 17.8701 23.2917 17.8898 23.1728 17.9341C23.0538 17.9784 22.9451 18.0463 22.8533 18.1339C22.7614 18.2214 22.6882 18.3267 22.6383 18.4434C22.5883 18.56 22.5625 18.6856 22.5625 18.8125V19.75H21.625C20.6304 19.75 19.6766 20.1451 18.9733 20.8484C18.2701 21.5516 17.875 22.5054 17.875 23.5V24.2031C17.875 24.2653 17.8997 24.3249 17.9436 24.3689C17.9876 24.4128 18.0472 24.4375 18.1094 24.4375H43.8906C43.9528 24.4375 44.0124 24.4128 44.0564 24.3689C44.1003 24.3249 44.125 24.2653 44.125 24.2031V23.5ZM17.875 40.375C17.875 41.3696 18.2701 42.3234 18.9733 43.0267C19.6766 43.7299 20.6304 44.125 21.625 44.125H40.375C41.3696 44.125 42.3234 43.7299 43.0266 43.0267C43.7299 42.3234 44.125 41.3696 44.125 40.375V26.4883C44.125 26.4417 44.1065 26.397 44.0735 26.364C44.0405 26.331 43.9958 26.3125 43.9492 26.3125H18.0508C18.0042 26.3125 17.9595 26.331 17.9265 26.364C17.8935 26.397 17.875 26.4417 17.875 26.4883V40.375ZM38.0312 28.1875C38.3094 28.1875 38.5813 28.27 38.8125 28.4245C39.0438 28.579 39.224 28.7986 39.3305 29.0556C39.4369 29.3126 39.4647 29.5953 39.4105 29.8681C39.3562 30.1409 39.2223 30.3915 39.0256 30.5881C38.829 30.7848 38.5784 30.9187 38.3056 30.973C38.0328 31.0272 37.7501 30.9994 37.4931 30.893C37.2361 30.7865 37.0165 30.6063 36.862 30.375C36.7075 30.1438 36.625 29.8719 36.625 29.5938C36.625 29.2208 36.7732 28.8631 37.0369 28.5994C37.3006 28.3357 37.6583 28.1875 38.0312 28.1875ZM38.0312 32.875C38.3094 32.875 38.5813 32.9575 38.8125 33.112C39.0438 33.2665 39.224 33.4861 39.3305 33.7431C39.4369 34.0001 39.4647 34.2828 39.4105 34.5556C39.3562 34.8284 39.2223 35.079 39.0256 35.2756C38.829 35.4723 38.5784 35.6062 38.3056 35.6605C38.0328 35.7147 37.7501 35.6869 37.4931 35.5805C37.2361 35.474 37.0165 35.2938 36.862 35.0625C36.7075 34.8313 36.625 34.5594 36.625 34.2813C36.625 33.9083 36.7732 33.5506 37.0369 33.2869C37.3006 33.0232 37.6583 32.875 38.0312 32.875ZM33.3438 28.1875C33.6219 28.1875 33.8938 28.27 34.125 28.4245C34.3563 28.579 34.5365 28.7986 34.643 29.0556C34.7494 29.3126 34.7772 29.5953 34.723 29.8681C34.6687 30.1409 34.5348 30.3915 34.3381 30.5881C34.1415 30.7848 33.8909 30.9187 33.6181 30.973C33.3453 31.0272 33.0626 30.9994 32.8056 30.893C32.5486 30.7865 32.329 30.6063 32.1745 30.375C32.02 30.1438 31.9375 29.8719 31.9375 29.5938C31.9375 29.2208 32.0857 28.8631 32.3494 28.5994C32.6131 28.3357 32.9708 28.1875 33.3438 28.1875ZM33.3438 32.875C33.6219 32.875 33.8938 32.9575 34.125 33.112C34.3563 33.2665 34.5365 33.4861 34.643 33.7431C34.7494 34.0001 34.7772 34.2828 34.723 34.5556C34.6687 34.8284 34.5348 35.079 34.3381 35.2756C34.1415 35.4723 33.8909 35.6062 33.6181 35.6605C33.3453 35.7147 33.0626 35.6869 32.8056 35.5805C32.5486 35.474 32.329 35.2938 32.1745 35.0625C32.02 34.8313 31.9375 34.5594 31.9375 34.2813C31.9375 33.9083 32.0857 33.5506 32.3494 33.2869C32.6131 33.0232 32.9708 32.875 33.3438 32.875ZM33.3438 37.5625C33.6219 37.5625 33.8938 37.645 34.125 37.7995C34.3563 37.954 34.5365 38.1736 34.643 38.4306C34.7494 38.6876 34.7772 38.9703 34.723 39.2431C34.6687 39.5159 34.5348 39.7665 34.3381 39.9631C34.1415 40.1598 33.8909 40.2937 33.6181 40.348C33.3453 40.4022 33.0626 40.3744 32.8056 40.268C32.5486 40.1615 32.329 39.9813 32.1745 39.75C32.02 39.5188 31.9375 39.2469 31.9375 38.9688C31.9375 38.5958 32.0857 38.2381 32.3494 37.9744C32.6131 37.7107 32.9708 37.5625 33.3438 37.5625ZM28.6562 32.875C28.9344 32.875 29.2063 32.9575 29.4375 33.112C29.6688 33.2665 29.849 33.4861 29.9555 33.7431C30.0619 34.0001 30.0897 34.2828 30.0355 34.5556C29.9812 34.8284 29.8473 35.079 29.6506 35.2756C29.454 35.4723 29.2034 35.6062 28.9306 35.6605C28.6578 35.7147 28.3751 35.6869 28.1181 35.5805C27.8611 35.474 27.6415 35.2938 27.487 35.0625C27.3325 34.8313 27.25 34.5594 27.25 34.2813C27.25 33.9083 27.3982 33.5506 27.6619 33.2869C27.9256 33.0232 28.2833 32.875 28.6562 32.875ZM28.6562 37.5625C28.9344 37.5625 29.2063 37.645 29.4375 37.7995C29.6688 37.954 29.849 38.1736 29.9555 38.4306C30.0619 38.6876 30.0897 38.9703 30.0355 39.2431C29.9812 39.5159 29.8473 39.7665 29.6506 39.9631C29.454 40.1598 29.2034 40.2937 28.9306 40.348C28.6578 40.4022 28.3751 40.3744 28.1181 40.268C27.8611 40.1615 27.6415 39.9813 27.487 39.75C27.3325 39.5188 27.25 39.2469 27.25 38.9688C27.25 38.5958 27.3982 38.2381 27.6619 37.9744C27.9256 37.7107 28.2833 37.5625 28.6562 37.5625ZM23.9688 32.875C24.2469 32.875 24.5188 32.9575 24.75 33.112C24.9813 33.2665 25.1615 33.4861 25.268 33.7431C25.3744 34.0001 25.4022 34.2828 25.348 34.5556C25.2937 34.8284 25.1598 35.079 24.9631 35.2756C24.7665 35.4723 24.5159 35.6062 24.2431 35.6605C23.9703 35.7147 23.6876 35.6869 23.4306 35.5805C23.1736 35.474 22.954 35.2938 22.7995 35.0625C22.645 34.8313 22.5625 34.5594 22.5625 34.2813C22.5625 33.9083 22.7107 33.5506 22.9744 33.2869C23.2381 33.0232 23.5958 32.875 23.9688 32.875ZM23.9688 37.5625C24.2469 37.5625 24.5188 37.645 24.75 37.7995C24.9813 37.954 25.1615 38.1736 25.268 38.4306C25.3744 38.6876 25.4022 38.9703 25.348 39.2431C25.2937 39.5159 25.1598 39.7665 24.9631 39.9631C24.7665 40.1598 24.5159 40.2937 24.2431 40.348C23.9703 40.4022 23.6876 40.3744 23.4306 40.268C23.1736 40.1615 22.954 39.9813 22.7995 39.75C22.645 39.5188 22.5625 39.2469 22.5625 38.9688C22.5625 38.5958 22.7107 38.2381 22.9744 37.9744C23.2381 37.7107 23.5958 37.5625 23.9688 37.5625Z" fill="white"/>
<path d="M62.5 50C62.5 55.799 57.799 60.5 52 60.5C46.201 60.5 41.5 55.799 41.5 50C41.5 44.201 46.201 39.5 52 39.5C57.799 39.5 62.5 44.201 62.5 50Z" fill="white" stroke="#F3322D" stroke-width="3"/>
<line x1="44.9793" y1="55.9008" x2="58.9793" y2="42.9008" stroke="#FF2721" stroke-width="3"/>
</svg>
