<svg width="64" height="72" viewBox="0 0 64 72" fill="none" xmlns="http://www.w3.org/2000/svg">
<circle cx="31" cy="36" r="31" fill="#B074FF"/>
<path d="M42.5775 21.0299C42.3751 20.971 42.1622 21.0027 41.9773 21.1195L40.663 21.9226L39.3374 21.1116C39.2187 21.039 39.0877 21.0011 38.955 21.0011C38.8222 21.0011 38.6913 21.039 38.5725 21.1116L37.2304 21.9233L35.9059 21.1116C35.7868 21.0384 35.6554 21.0003 35.5221 21.0003C35.3889 21.0003 35.2574 21.0384 35.1384 21.1116L33.8213 21.9207L32.5145 21.1136C32.3957 21.0399 32.2645 21.0012 32.1314 21.0005C31.9982 20.9998 31.8668 21.0372 31.7475 21.1097L30.4005 21.924L29.075 21.111C28.956 21.0383 28.8249 21.0005 28.692 21.0005C28.5591 21.0005 28.428 21.0383 28.309 21.111L26.9797 21.9226L25.652 21.111C25.4809 21.006 25.2859 20.9743 25.0983 21.021C24.9106 21.0677 24.7413 21.1902 24.6172 21.3687C24.4836 21.5636 24.4115 21.8108 24.4141 22.0652V37.7444L24.4168 37.7476H34.6765C35.1302 37.7476 35.5652 37.9681 35.886 38.3607C36.2067 38.7532 36.3869 39.2855 36.3869 39.8406V46.6396C36.3869 48.6626 38.1545 50.3023 39.8078 50.3023H40.4492C41.1863 50.3023 41.8933 49.944 42.4145 49.3062C42.9357 48.6683 43.2286 47.8032 43.2286 46.9012V22.0469C43.2287 21.8127 43.1646 21.5852 43.0466 21.4008C42.9286 21.2164 42.7634 21.0858 42.5775 21.0299ZM38.9526 34.6049H32.1377C31.6759 34.6049 31.2771 34.1706 31.2568 33.6055C31.2516 33.4642 31.2699 33.3232 31.3104 33.1908C31.351 33.0585 31.4131 32.9375 31.4929 32.8353C31.5727 32.7331 31.6686 32.6518 31.7749 32.5962C31.8811 32.5406 31.9954 32.5119 32.1109 32.5119H38.9258C39.3876 32.5119 39.7864 32.9462 39.8067 33.5113C39.8119 33.6525 39.7936 33.7936 39.7531 33.9259C39.7125 34.0583 39.6504 34.1792 39.5706 34.2814C39.4908 34.3836 39.3949 34.465 39.2886 34.5206C39.1824 34.5762 39.0681 34.6048 38.9526 34.6049ZM38.9526 29.3724H28.7169C28.2551 29.3724 27.8563 28.9381 27.836 28.373C27.8308 28.2318 27.849 28.0907 27.8896 27.9583C27.9302 27.826 27.9923 27.705 28.0721 27.6028C28.1519 27.5006 28.2478 27.4193 28.3541 27.3637C28.4603 27.3081 28.5746 27.2794 28.6901 27.2794H38.9258C39.3876 27.2794 39.7864 27.7137 39.8067 28.2788C39.8119 28.42 39.7936 28.5611 39.7531 28.6935C39.7125 28.8258 39.6504 28.9468 39.5706 29.049C39.4908 29.1512 39.3949 29.2325 39.2886 29.2881C39.1824 29.3437 39.0681 29.3724 38.9526 29.3724Z" fill="white"/>
<path d="M34.8332 47.0931V40.9537C34.8332 40.6576 34.7498 40.3737 34.6014 40.1643C34.4529 39.955 34.2515 39.8374 34.0416 39.8374H20.5833C20.1634 39.8392 19.761 40.0755 19.4643 40.4946C19.1676 40.9136 19.0007 41.4813 19 42.0734C19 45.6001 19.286 47.0666 19.7155 48.1829C20.4443 50.0784 21.7639 51 23.75 51H35.9059C35.945 51.0001 35.9832 50.9838 36.0157 50.9533C36.0482 50.9229 36.0736 50.8795 36.0887 50.8287C36.1038 50.7779 36.1078 50.722 36.1004 50.6679C36.093 50.6139 36.0744 50.5641 36.047 50.5249C35.5789 49.8628 34.8332 48.9768 34.8332 47.0931Z" fill="white"/>
<path d="M58.5 54.4782C58.5 59.9621 54.0258 64.413 48.5 64.413C42.9742 64.413 38.5 59.9621 38.5 54.4782C38.5 48.9943 42.9742 44.5435 48.5 44.5435C54.0258 44.5435 58.5 48.9943 58.5 54.4782Z" fill="#B074FF" stroke="white"/>
<path d="M48.4688 44.9265C47.1555 44.9265 45.8552 45.1851 44.6419 45.6877C43.4287 46.1902 42.3263 46.9268 41.3977 47.8554C39.5223 49.7307 38.4688 52.2743 38.4688 54.9265C38.4688 57.5786 39.5223 60.1222 41.3977 61.9975C42.3263 62.9261 43.4287 63.6627 44.6419 64.1652C45.8552 64.6678 47.1555 64.9265 48.4688 64.9265C51.1209 64.9265 53.6645 63.8729 55.5398 61.9975C57.4152 60.1222 58.4688 57.5786 58.4688 54.9265C58.4688 53.6132 58.2101 52.3129 57.7075 51.0996C57.205 49.8864 56.4684 48.784 55.5398 47.8554C54.6112 46.9268 53.5088 46.1902 52.2956 45.6877C51.0823 45.1851 49.782 44.9265 48.4688 44.9265ZM52.6688 59.1265L47.4688 55.9265V49.9265H48.9688V55.1265L53.4688 57.8265L52.6688 59.1265Z" fill="white"/>
<path d="M48.4948 43C54.8454 43 59.9948 48.3733 59.9948 55H63.8281L58.8576 60.1867L58.7681 60.3733L53.6059 55H57.4392C57.4392 49.84 53.4398 45.6667 48.4948 45.6667C43.5498 45.6667 39.5504 49.84 39.5504 55C39.5504 60.16 43.5498 64.3333 48.4948 64.3333V67C42.1442 67 36.9948 61.6267 36.9948 55C36.9948 48.3733 42.1442 43 48.4948 43Z" fill="#882DFF"/>
<path d="M54.2676 65H50.7744V64.2651L52.0288 62.9971C52.2817 62.7373 52.4845 62.5208 52.6372 62.3477C52.7922 62.1722 52.9038 62.0127 52.9722 61.8691C53.0428 61.7256 53.0781 61.5718 53.0781 61.4077C53.0781 61.2095 53.0223 61.0614 52.9106 60.9634C52.8013 60.8631 52.6543 60.813 52.4697 60.813C52.276 60.813 52.0881 60.8574 51.9058 60.9463C51.7235 61.0352 51.5332 61.1616 51.335 61.3257L50.7607 60.6455C50.9043 60.5225 51.0558 60.4062 51.2153 60.2969C51.3771 60.1875 51.564 60.0998 51.7759 60.0337C51.9901 59.9653 52.2464 59.9312 52.5449 59.9312C52.873 59.9312 53.1545 59.9904 53.3892 60.1089C53.6261 60.2274 53.8084 60.3892 53.936 60.5942C54.0636 60.797 54.1274 61.0272 54.1274 61.2847C54.1274 61.5604 54.0728 61.8122 53.9634 62.04C53.854 62.2679 53.6945 62.4935 53.4849 62.7168C53.2775 62.9401 53.0269 63.1873 52.7329 63.4585L52.0903 64.0635V64.1113H54.2676V65ZM58.3862 63.9644H57.7847V65H56.7524V63.9644H54.6196V63.2295L56.8105 60.0029H57.7847V63.144H58.3862V63.9644ZM56.7524 63.144V62.2964C56.7524 62.2166 56.7536 62.1221 56.7559 62.0127C56.7604 61.9033 56.765 61.7939 56.7695 61.6846C56.7741 61.5752 56.7786 61.4784 56.7832 61.394C56.79 61.3075 56.7946 61.2471 56.7969 61.2129H56.7695C56.7262 61.3063 56.6807 61.3975 56.6328 61.4863C56.585 61.5729 56.5291 61.6641 56.4653 61.7598L55.5493 63.144H56.7524Z" fill="#750BFF"/>
</svg>