<svg width="64" height="62" viewBox="0 0 64 62" fill="none" xmlns="http://www.w3.org/2000/svg">
<circle cx="31" cy="31" r="31" fill="#1BC47D"/>
<path d="M42.5775 16.0299C42.3751 15.971 42.1622 16.0027 41.9773 16.1195L40.663 16.9226L39.3374 16.1116C39.2187 16.039 39.0877 16.0011 38.955 16.0011C38.8222 16.0011 38.6913 16.039 38.5725 16.1116L37.2304 16.9233L35.9059 16.1116C35.7868 16.0384 35.6554 16.0003 35.5221 16.0003C35.3889 16.0003 35.2574 16.0384 35.1384 16.1116L33.8213 16.9207L32.5145 16.1136C32.3957 16.0399 32.2645 16.0012 32.1314 16.0005C31.9982 15.9998 31.8668 16.0372 31.7475 16.1097L30.4005 16.924L29.075 16.111C28.956 16.0383 28.8249 16.0005 28.692 16.0005C28.5591 16.0005 28.428 16.0383 28.309 16.111L26.9797 16.9226L25.652 16.111C25.4809 16.006 25.2859 15.9743 25.0983 16.021C24.9106 16.0677 24.7413 16.1902 24.6172 16.3687C24.4836 16.5636 24.4115 16.8108 24.4141 17.0652V32.7444L24.4168 32.7476H34.6765C35.1302 32.7476 35.5652 32.9681 35.886 33.3607C36.2067 33.7532 36.3869 34.2855 36.3869 34.8406V41.6396C36.3869 43.6626 38.1545 45.3023 39.8078 45.3023H40.4492C41.1863 45.3023 41.8933 44.944 42.4145 44.3062C42.9357 43.6683 43.2286 42.8032 43.2286 41.9012V17.0469C43.2287 16.8127 43.1646 16.5852 43.0466 16.4008C42.9286 16.2164 42.7634 16.0858 42.5775 16.0299ZM38.9526 29.6049H32.1377C31.6759 29.6049 31.2771 29.1706 31.2568 28.6055C31.2516 28.4642 31.2699 28.3232 31.3104 28.1908C31.351 28.0585 31.4131 27.9375 31.4929 27.8353C31.5727 27.7331 31.6686 27.6518 31.7749 27.5962C31.8811 27.5406 31.9954 27.5119 32.1109 27.5119H38.9258C39.3876 27.5119 39.7864 27.9462 39.8067 28.5113C39.8119 28.6525 39.7936 28.7936 39.7531 28.9259C39.7125 29.0583 39.6504 29.1792 39.5706 29.2814C39.4908 29.3836 39.3949 29.465 39.2886 29.5206C39.1824 29.5762 39.0681 29.6048 38.9526 29.6049ZM38.9526 24.3724H28.7169C28.2551 24.3724 27.8563 23.9381 27.836 23.373C27.8308 23.2318 27.849 23.0907 27.8896 22.9583C27.9302 22.826 27.9923 22.705 28.0721 22.6028C28.1519 22.5006 28.2478 22.4193 28.3541 22.3637C28.4603 22.3081 28.5746 22.2794 28.6901 22.2794H38.9258C39.3876 22.2794 39.7864 22.7137 39.8067 23.2788C39.8119 23.42 39.7936 23.5611 39.7531 23.6935C39.7125 23.8258 39.6504 23.9468 39.5706 24.049C39.4908 24.1512 39.3949 24.2325 39.2886 24.2881C39.1824 24.3437 39.0681 24.3724 38.9526 24.3724Z" fill="white"/>
<path d="M34.8332 42.0931V35.9537C34.8332 35.6576 34.7498 35.3737 34.6014 35.1643C34.4529 34.955 34.2515 34.8374 34.0416 34.8374H20.5833C20.1634 34.8392 19.761 35.0755 19.4643 35.4946C19.1676 35.9136 19.0007 36.4813 19 37.0734C19 40.6001 19.286 42.0666 19.7155 43.1829C20.4443 45.0784 21.7639 46 23.75 46H35.9059C35.945 46.0001 35.9832 45.9838 36.0157 45.9533C36.0482 45.9229 36.0736 45.8795 36.0887 45.8287C36.1038 45.7779 36.1078 45.722 36.1004 45.6679C36.093 45.6139 36.0744 45.5641 36.047 45.5249C35.5789 44.8628 34.8332 43.9768 34.8332 42.0931Z" fill="white"/>
<path d="M63 50C63 56.0751 58.0751 61 52 61C45.9249 61 41 56.0751 41 50C41 43.9249 45.9249 39 52 39C58.0751 39 63 43.9249 63 50Z" fill="white" stroke="#1BC47D" stroke-width="2"/>
<path d="M50.3269 51.6971L47.5144 48.8846L46 50.399L50.3269 54.726L57.5385 47.5144L56.024 46L50.3269 51.6971Z" fill="#1BC47D"/>
</svg>
