<svg width="64" height="62" viewBox="0 0 64 62" fill="none" xmlns="http://www.w3.org/2000/svg">
<circle cx="32" cy="31" r="31" fill="#12B3F8"/>
<path d="M43.5775 16.0299C43.3751 15.971 43.1622 16.0027 42.9773 16.1195L41.663 16.9226L40.3374 16.1116C40.2187 16.039 40.0877 16.0011 39.955 16.0011C39.8222 16.0011 39.6913 16.039 39.5725 16.1116L38.2304 16.9233L36.9059 16.1116C36.7868 16.0384 36.6554 16.0003 36.5221 16.0003C36.3889 16.0003 36.2574 16.0384 36.1384 16.1116L34.8213 16.9207L33.5145 16.1136C33.3957 16.0399 33.2645 16.0012 33.1314 16.0005C32.9982 15.9998 32.8668 16.0372 32.7475 16.1097L31.4005 16.924L30.075 16.111C29.956 16.0383 29.8249 16.0005 29.692 16.0005C29.5591 16.0005 29.428 16.0383 29.309 16.111L27.9797 16.9226L26.652 16.111C26.4809 16.006 26.2859 15.9743 26.0983 16.021C25.9106 16.0677 25.7413 16.1902 25.6172 16.3687C25.4836 16.5636 25.4115 16.8108 25.4141 17.0652V32.7444L25.4168 32.7476H35.6765C36.1302 32.7476 36.5652 32.9681 36.886 33.3607C37.2067 33.7532 37.3869 34.2855 37.3869 34.8406V41.6396C37.3869 43.6626 39.1545 45.3023 40.8078 45.3023H41.4492C42.1863 45.3023 42.8933 44.944 43.4145 44.3062C43.9357 43.6683 44.2286 42.8032 44.2286 41.9012V17.0469C44.2287 16.8127 44.1646 16.5852 44.0466 16.4008C43.9286 16.2164 43.7634 16.0858 43.5775 16.0299ZM39.9526 29.6049H33.1377C32.6759 29.6049 32.2771 29.1706 32.2568 28.6055C32.2516 28.4642 32.2699 28.3232 32.3104 28.1908C32.351 28.0585 32.4131 27.9375 32.4929 27.8353C32.5727 27.7331 32.6686 27.6518 32.7749 27.5962C32.8811 27.5406 32.9954 27.5119 33.1109 27.5119H39.9258C40.3876 27.5119 40.7864 27.9462 40.8067 28.5113C40.8119 28.6525 40.7936 28.7936 40.7531 28.9259C40.7125 29.0583 40.6504 29.1792 40.5706 29.2814C40.4908 29.3836 40.3949 29.465 40.2886 29.5206C40.1824 29.5762 40.0681 29.6048 39.9526 29.6049ZM39.9526 24.3724H29.7169C29.2551 24.3724 28.8563 23.9381 28.836 23.373C28.8308 23.2318 28.849 23.0907 28.8896 22.9583C28.9302 22.826 28.9923 22.705 29.0721 22.6028C29.1519 22.5006 29.2478 22.4193 29.3541 22.3637C29.4603 22.3081 29.5746 22.2794 29.6901 22.2794H39.9258C40.3876 22.2794 40.7864 22.7137 40.8067 23.2788C40.8119 23.42 40.7936 23.5611 40.7531 23.6935C40.7125 23.8258 40.6504 23.9468 40.5706 24.049C40.4908 24.1512 40.3949 24.2325 40.2886 24.2881C40.1824 24.3437 40.0681 24.3724 39.9526 24.3724Z" fill="white"/>
<path d="M35.8332 42.0931V35.9537C35.8332 35.6576 35.7498 35.3737 35.6014 35.1643C35.4529 34.955 35.2515 34.8374 35.0416 34.8374H21.5833C21.1634 34.8392 20.761 35.0755 20.4643 35.4946C20.1676 35.9136 20.0007 36.4813 20 37.0734C20 40.6001 20.286 42.0666 20.7155 43.1829C21.4443 45.0784 22.7639 46 24.75 46H36.9059C36.945 46.0001 36.9832 45.9838 37.0157 45.9533C37.0482 45.9229 37.0736 45.8795 37.0887 45.8287C37.1038 45.7779 37.1078 45.722 37.1004 45.6679C37.093 45.6139 37.0744 45.5641 37.047 45.5249C36.5789 44.8628 35.8332 43.9768 35.8332 42.0931Z" fill="white"/>
</svg>
