<svg width="87" height="27" viewBox="0 0 87 27" fill="none" xmlns="http://www.w3.org/2000/svg">
<path d="M11.5803 0.319702L0.350891 2.23808L0.70181 14.3878L1.05273 15.0273L2.80732 17.2654L5.96559 19.8232L10.5275 22.7008L12.2821 23.3402L17.195 20.4627L22.1079 15.9864L23.1606 14.547V2.23808L11.5803 0.319702Z" fill="black"/>
<path d="M9.45446 0.227315C10.2588 0.0512443 11.1008 0.0258412 11.9286 0C12.5982 0.0091977 13.2706 0.0416087 13.9336 0.131834C14.6694 0.24571 15.4014 0.377982 16.1386 0.483974C16.2748 0.524269 16.4239 0.519889 16.5563 0.568943C16.7306 0.595661 16.9177 0.588653 17.0806 0.657854C17.112 0.658292 17.1749 0.65873 17.2063 0.659168L17.212 0.708661C17.4154 0.692017 17.6197 0.718296 17.8174 0.762971C17.9598 0.816843 18.1193 0.791002 18.2655 0.833925C20.1543 1.13789 22.0426 1.44929 23.9319 1.74975C23.949 1.75895 23.9829 1.77778 24 1.78742C23.9895 6.11165 23.9995 10.4363 23.9952 14.761C24.0176 14.8241 23.9452 14.8565 23.9019 14.8858C23.0275 16.1297 21.9802 17.265 20.8496 18.3183C19.6195 19.4461 18.2922 20.4842 16.8872 21.4241C15.6395 22.2532 14.3498 23.0315 13.0068 23.7244C12.6734 23.9539 12.2443 24.0327 11.8352 23.988C11.5209 23.9258 11.1923 23.8746 10.9151 23.7139C9.69211 23.1011 8.5053 22.4214 7.36231 21.6869C5.75783 20.6777 4.23812 19.5486 2.87653 18.2706C1.88594 17.3403 0.975354 16.3281 0.263365 15.1994C0.176688 15.0382 0.0466722 14.8906 0.00380997 14.7137C-0.00190499 10.3855 0.00571497 6.0569 0 1.72917C0.2767 1.66873 0.561495 1.64376 0.839624 1.58989C0.923919 1.56054 1.05108 1.6258 1.10775 1.54521C3.51042 1.16942 5.91118 0.7783 8.31385 0.397253C8.69342 0.340315 9.07108 0.265419 9.45446 0.227315ZM10.9827 0.892615C10.0183 0.944297 9.07775 1.16285 8.12573 1.296C7.06227 1.47076 5.9969 1.64376 4.93344 1.81589C3.59662 2.0213 2.27551 2.25606 0.939159 2.45973C0.929634 3.72813 0.938207 4.99566 0.936302 6.26451C0.936778 9.02513 0.929634 11.7844 0.940112 14.5455C1.38397 15.3115 1.94452 16.0198 2.5603 16.6772C3.74187 17.9451 5.10727 19.0581 6.54887 20.0703C8.03667 21.107 9.59781 22.0574 11.2271 22.8957C11.5509 23.0823 11.9457 23.2211 12.3286 23.1121C12.4453 22.9991 12.6186 22.9553 12.7553 22.8655C13.6664 22.3933 14.5532 21.8809 15.408 21.3264C16.7591 20.4723 18.0474 19.5346 19.2604 18.5202C20.622 17.3591 21.8869 16.092 22.927 14.6743C23.0594 14.5608 23.0237 14.3852 23.0237 14.2363C23.0194 10.3124 23.0261 6.38802 23.0194 2.46323C20.8606 2.11591 18.7018 1.76508 16.5424 1.41688C16.2748 1.38491 16.0129 1.30169 15.74 1.31877L15.7204 1.2776C15.6566 1.26578 15.5685 1.30432 15.5195 1.24957C14.9865 1.17117 14.456 1.0827 13.9259 0.989848C12.9525 0.86765 11.9643 0.844436 10.9827 0.892615Z" fill="url(#paint0_linear_2784_18889)"/>
<path d="M11.168 1.89608C11.5966 1.85578 12.0295 1.87023 12.4601 1.87199C12.9039 1.9044 13.3559 1.90703 13.7907 1.99988C14.0502 2.03798 14.3065 2.08967 14.5674 2.12164C14.756 2.14179 14.9261 2.21274 15.1185 2.20924C16.8339 2.48779 18.5517 2.75497 20.2667 3.03615C20.2596 3.04842 20.2448 3.07251 20.2376 3.08433C20.4343 3.04097 20.6415 3.09221 20.8368 3.12594C21.1487 3.16492 21.4559 3.23106 21.7678 3.26829C21.7864 6.86459 21.7688 10.4622 21.7769 14.0589C21.7707 14.1312 21.7945 14.2171 21.7307 14.2731C20.2815 16.0421 18.5432 17.5939 16.6963 19.0082C15.1889 20.1395 13.5926 21.1661 11.9652 22.1455C11.8252 22.1512 11.71 22.0469 11.5814 22.0049C11.2447 21.8792 10.9556 21.6742 10.647 21.5029C9.89975 21.0422 9.15014 20.5836 8.441 20.0738C7.93475 19.6892 7.39897 19.3393 6.88129 18.9679C6.81367 18.9534 6.82224 18.8601 6.74985 18.8715C6.75175 18.8014 6.65317 18.8273 6.62222 18.7756C5.75259 18.134 4.92249 17.4463 4.12859 16.7267C3.43422 16.1008 2.83986 15.39 2.2455 14.6848C2.17692 14.5815 2.06453 14.4925 2.05548 14.3651C2.05977 10.6838 2.06024 7.00036 2.05548 3.31865C2.06739 3.30376 2.09168 3.27398 2.10358 3.25865C2.28265 3.24901 2.45743 3.20522 2.63698 3.19602C2.96226 3.10535 3.30992 3.09046 3.64234 3.0182C5.40874 2.7392 7.17038 2.45845 8.93773 2.17682C9.67925 2.07171 10.4131 1.89651 11.168 1.89608ZM3.0956 11.0548C3.08656 11.0714 3.06894 11.1047 3.06036 11.1214C3.06608 11.8086 3.06131 12.4958 3.06274 13.183C3.07465 13.2395 3.08418 13.2964 3.09084 13.3538C3.1137 13.3231 3.13847 13.2938 3.16561 13.2662C3.90904 12.5991 4.64007 11.9203 5.37921 11.2493C5.38969 11.1796 5.48494 11.1932 5.51208 11.1293C7.87427 8.97086 10.2422 6.81772 12.6015 4.65626L12.6444 4.6567C12.6558 4.59889 12.7063 4.56385 12.7506 4.52618C13.2563 4.06454 13.7759 3.59152 14.2874 3.12463C14.3208 3.09178 14.3755 3.05761 14.3403 3.00725C13.9321 2.9468 13.5288 2.86227 13.1216 2.80095C13.183 2.79657 13.2454 2.79263 13.3073 2.78869L13.3044 2.76635C13.2278 2.76635 13.1511 2.77073 13.0797 2.79701C12.7758 2.77599 12.4705 2.76723 12.1657 2.76986C9.14823 5.53705 6.11787 8.29242 3.0956 11.0548ZM6.50268 3.461C5.35254 3.64758 4.20145 3.83197 3.0456 3.99622C3.03465 4.05097 3.03036 4.10659 3.03179 4.16265C3.03703 5.28696 3.0256 6.41127 3.0375 7.53558C4.58721 6.12264 6.13311 4.70444 7.68663 3.29588C7.28706 3.31778 6.89796 3.41151 6.50268 3.461ZM17.6683 3.5705C14.9856 6.02321 12.2938 8.46761 9.61448 10.9234C9.56685 10.9808 9.46351 11.011 9.46589 11.0933C9.4535 11.0942 9.42874 11.0968 9.41636 11.0977C9.14728 11.3417 8.89106 11.5992 8.60626 11.8274C8.56673 11.8822 8.51958 11.933 8.45339 11.961C8.42005 12.01 8.37957 12.0981 8.30003 12.0762C8.29861 12.0889 8.29622 12.1138 8.29527 12.1261C7.00083 13.2982 5.7183 14.4803 4.42624 15.6541C4.42672 15.6672 4.42719 15.6939 4.42719 15.7071C4.82057 16.0864 5.23205 16.4499 5.64448 16.8117C6.72127 15.8485 7.78045 14.8653 8.85105 13.8951C8.96154 13.7756 9.0806 13.674 9.20871 13.5684C10.587 12.3109 11.9657 11.0535 13.3425 9.79471C13.3773 9.75354 13.4545 9.73295 13.443 9.66988C13.4564 9.66726 13.483 9.66244 13.4964 9.65981C14.014 9.17496 14.5355 8.70982 15.0561 8.22979C15.0594 8.15796 15.1851 8.18292 15.1685 8.09533C15.1804 8.09314 15.2032 8.08919 15.2151 8.087C16.7539 6.68414 18.2912 5.27908 19.829 3.8749C19.3852 3.78511 18.9346 3.72598 18.486 3.66203C18.4779 3.65503 18.4617 3.64013 18.4531 3.63269C18.1893 3.64101 17.9288 3.52932 17.6683 3.5705ZM20.3696 6.87904C18.6436 8.45623 16.9158 10.033 15.1894 11.6097L15.1785 11.6474C15.1661 11.65 15.1413 11.6548 15.1294 11.6575C15.1189 11.7315 15.0027 11.7416 14.9661 11.8134C13.2992 13.3301 11.6376 14.8517 9.97214 16.3702C9.92642 16.4008 9.90165 16.4749 9.83212 16.4591C9.83736 16.5213 9.76592 16.5511 9.72592 16.5887C9.66401 16.636 9.62495 16.7105 9.54447 16.7359C9.36683 16.9623 9.10537 17.1349 8.90392 17.3482C8.89344 17.417 8.77247 17.396 8.78914 17.4827C8.77771 17.4844 8.75485 17.4884 8.7439 17.4901C8.40481 17.8098 8.04334 18.1129 7.7152 18.4397C8.11858 18.7642 8.55721 19.0559 8.98583 19.3533C9.03965 19.4019 9.15728 19.4212 9.20538 19.3546C13.0839 15.8087 16.9682 12.268 20.8458 8.72121C20.8968 8.67478 20.8977 8.60295 20.8963 8.54119C20.893 7.9267 20.8953 7.31264 20.8949 6.69815C20.8934 6.61143 20.9096 6.52252 20.8744 6.43974C20.6867 6.56457 20.5405 6.73582 20.3696 6.87904ZM20.7672 12.3324C17.6673 15.1613 14.567 17.9894 11.4704 20.8214C11.4485 20.8736 11.468 20.9318 11.529 20.9511C11.6638 21.0251 11.7962 21.1022 11.9281 21.1806C12.0938 21.1153 12.23 21.0036 12.3858 20.9213C13.9679 19.9608 15.4818 18.9066 16.9201 17.7717C18.2993 16.6641 19.6061 15.4736 20.7472 14.1544C20.8072 14.0857 20.8825 14.0213 20.8968 13.9289C20.8925 13.4471 20.8953 12.9649 20.8963 12.4831C20.8906 12.4108 20.9139 12.332 20.8744 12.2658C20.8315 12.2781 20.7958 12.3004 20.7672 12.3324Z" fill="url(#paint1_linear_2784_18889)"/>
<path d="M49.136 12.312C49.136 15.608 48.208 17.904 46.352 19.2C44.64 20.4 42.288 21 39.296 21H32.504V20.544H34.088V4.656H32.504V4.2H39.92C42.992 4.2 45.296 4.832 46.832 6.096C48.368 7.344 49.136 9.416 49.136 12.312ZM38.768 20.544H39.68C41.296 20.544 42.448 19.976 43.136 18.84C43.84 17.688 44.192 15.768 44.192 13.08V11.688C44.192 8.088 43.504 5.92 42.128 5.184C41.472 4.832 40.544 4.656 39.344 4.656H38.768V20.544ZM64.1628 21H58.6908L58.4268 19.248C58.1708 19.888 57.7868 20.384 57.2748 20.736C56.7788 21.072 56.0348 21.24 55.0428 21.24C52.5628 21.24 51.3228 19.904 51.3228 17.232V10.008H49.9788V9.576H55.7868V17.808C55.7868 18.768 55.8508 19.4 55.9788 19.704C56.1228 20.008 56.3948 20.16 56.7948 20.16C57.2108 20.16 57.5788 19.912 57.8988 19.416C58.2188 18.92 58.3788 18.232 58.3788 17.352V10.008H57.2748V9.576H62.8428V20.568H64.1628V21ZM65.8541 17.568V10.008H64.5341V9.576H65.8541V6.48L70.3181 5.376V9.576H73.4381V10.008H70.3181V18.096C70.3181 18.848 70.3901 19.4 70.5341 19.752C70.6941 20.104 71.0141 20.28 71.4941 20.28C71.9741 20.28 72.3901 20.04 72.7421 19.56C73.1101 19.08 73.3501 18.424 73.4621 17.592L73.8701 17.64C73.7421 18.744 73.3901 19.624 72.8141 20.28C72.2381 20.92 71.2861 21.24 69.9581 21.24C68.6301 21.24 67.6141 20.976 66.9101 20.448C66.2061 19.92 65.8541 18.96 65.8541 17.568ZM73.745 10.008V9.576H80.705V10.008H79.409L82.025 17.976L84.809 10.008H83.201V9.576H86.585V10.008H85.385L80.897 22.944C80.369 24.448 79.777 25.496 79.121 26.088C78.465 26.696 77.665 27 76.721 27C75.777 27 75.033 26.784 74.489 26.352C73.945 25.92 73.673 25.368 73.673 24.696C73.673 24.024 73.849 23.512 74.201 23.16C74.553 22.808 75.017 22.632 75.593 22.632C76.921 22.632 77.585 23.184 77.585 24.288C77.585 24.528 77.537 24.816 77.441 25.152H76.601C76.473 25.52 76.457 25.824 76.553 26.064C76.649 26.304 76.865 26.424 77.201 26.424C77.857 26.424 78.441 26.096 78.953 25.44C79.465 24.8 79.953 23.816 80.417 22.488L80.945 21H78.833L74.729 10.008H73.745Z" fill="black"/>
<defs>
<linearGradient id="paint0_linear_2784_18889" x1="0" y1="12" x2="24" y2="12" gradientUnits="userSpaceOnUse">
<stop stop-color="#FFE259"/>
<stop offset="1" stop-color="#FFA751"/>
</linearGradient>
<linearGradient id="paint1_linear_2784_18889" x1="2.05548" y1="12.0069" x2="21.7769" y2="12.0069" gradientUnits="userSpaceOnUse">
<stop stop-color="#FFE259"/>
<stop offset="1" stop-color="#FFA751"/>
</linearGradient>
</defs>
</svg>
