<svg id="_030104ff" data-name="#030104ff" xmlns="http://www.w3.org/2000/svg" width="13.746" height="13.746" viewBox="0 0 13.746 13.746">
  <path id="Path_19607" data-name="Path 19607" d="M6.751,0h.242a6.878,6.878,0,0,1,6.753,6.751V7A6.88,6.88,0,0,1,7,13.746H6.752A6.879,6.879,0,0,1,.186,8.458,7.1,7.1,0,0,1,0,7V6.751A6.88,6.88,0,0,1,6.751,0m.505,2.668a1.066,1.066,0,0,0-.7.5.939.939,0,0,0-.091.7,1,1,0,0,0,.48.6,1.126,1.126,0,0,0,.764.117,1.062,1.062,0,0,0,.683-.462.936.936,0,0,0,.11-.739,1.011,1.011,0,0,0-.47-.6,1.12,1.12,0,0,0-.773-.121M4.926,5.923c-.045.161-.079.325-.121.486a2.186,2.186,0,0,1,.616-.152.994.994,0,0,1,.444.067.388.388,0,0,1,.186.319,2.771,2.771,0,0,1-.132.945c-.141.5-.285,1.007-.427,1.511a3.494,3.494,0,0,0-.119.944.993.993,0,0,0,.281.652,1.321,1.321,0,0,0,.894.375,2.26,2.26,0,0,0,.967-.122l.787-.3c.04-.159.077-.319.119-.478a2.079,2.079,0,0,1-.716.149c-.175-.009-.394-.028-.492-.2a1.065,1.065,0,0,1-.035-.661c.046-.226.1-.452.161-.673q.187-.662.374-1.325a2.762,2.762,0,0,0,.094-.488,1.823,1.823,0,0,0-.022-.7,1.016,1.016,0,0,0-.564-.641A1.833,1.833,0,0,0,6.391,5.5,5.348,5.348,0,0,0,4.926,5.923Z" fill="#666"/>
</svg>
