<?xml version="1.0" encoding="UTF-8" ?>
<!DOCTYPE svg PUBLIC "-//W3C//DTD SVG 1.1//EN" "http://www.w3.org/Graphics/SVG/1.1/DTD/svg11.dtd">
<svg width="512pt" height="512pt" viewBox="0 0 512 512" version="1.1" xmlns="http://www.w3.org/2000/svg">
<g id="#ffc107ff">
<path fill="#ffc107" opacity="1.00" d=" M 230.84 27.85 C 234.51 18.92 243.19 12.23 252.83 11.21 C 262.33 10.01 272.26 14.30 277.86 22.06 C 281.34 26.94 283.09 32.75 285.58 38.15 C 303.56 80.19 321.47 122.25 339.50 164.27 C 388.04 168.62 436.58 173.04 485.12 177.49 C 489.79 177.83 494.49 178.89 498.53 181.34 C 506.45 185.87 511.56 194.64 512.00 203.71 L 512.00 205.39 C 511.76 213.04 508.28 220.48 502.50 225.50 C 465.33 258.11 428.14 290.69 390.98 323.30 C 401.75 370.57 412.43 417.85 423.19 465.12 C 425.65 473.34 424.80 482.71 419.76 489.81 C 412.31 501.27 395.72 505.03 383.99 498.08 C 341.32 472.59 298.69 447.04 256.01 421.58 C 213.58 446.97 171.13 472.36 128.65 497.67 C 117.90 504.44 102.61 502.24 94.36 492.53 C 88.41 486.01 86.08 476.51 88.16 467.95 C 99.10 419.71 110.06 371.48 121.00 323.25 C 83.66 290.50 46.32 257.76 8.98 225.01 C 3.48 220.12 0.30 212.90 0.00 205.59 L 0.00 203.73 C 0.37 190.80 10.98 179.19 23.86 177.83 C 73.42 173.23 122.99 168.88 172.55 164.26 C 191.98 118.79 211.41 73.32 230.84 27.85 Z" />
</g>
</svg>
