<svg xmlns="http://www.w3.org/2000/svg" width="40.487" height="12.92" viewBox="0 0 40.487 12.92">
  <g id="Group_17368" data-name="Group 17368" transform="translate(-10527.278 1889.344)">
    <g id="Screenshot_1" transform="translate(10527.479 -1889.144)">
      <g id="_000000ff" data-name="#000000ff" transform="translate(0 0)">
        <path id="Path_27168" data-name="Path 27168" d="M7.1,57.511a6.985,6.985,0,0,1,2.371-.447,3,3,0,0,1,1.3.313,1.564,1.564,0,0,1,.837.934,1.683,1.683,0,0,1-.061.869,15.513,15.513,0,0,1-.794,2.062c-.492,1.09-1.022,2.164-1.52,3.252-.266.565-.512,1.14-.725,1.726a1.877,1.877,0,0,0-.155,1.046A41.431,41.431,0,0,1,11.8,62.221a33.028,33.028,0,0,1,2.4-2.706,15.23,15.23,0,0,1,1.846-1.592,3.665,3.665,0,0,1,1.454-.665,1.3,1.3,0,0,1,1.016.516,1.946,1.946,0,0,1,.455.753,3.527,3.527,0,0,1-.317-.3.938.938,0,0,0-.536-.23,2.371,2.371,0,0,0-1.091.252,9.4,9.4,0,0,0-2.117,1.485A28.125,28.125,0,0,0,12.3,62.39a31.517,31.517,0,0,0-2.45,3.171A16.571,16.571,0,0,0,8.725,67.5a.208.208,0,0,1-.263.122,1.391,1.391,0,0,1-.573-.422,1.149,1.149,0,0,1-.37-.786A4.64,4.64,0,0,1,7.8,65.5c.453-1.145.993-2.256,1.507-3.376C9.791,61.061,10.3,60,10.687,58.9a1.859,1.859,0,0,0,.145-1.052.669.669,0,0,0-.542-.4,3.6,3.6,0,0,0-1.6.152,10.5,10.5,0,0,0-2.969,1.561,7.433,7.433,0,0,0-1.782,1.815,1.371,1.371,0,0,0-.254,1.015.418.418,0,0,0,.426.289,3.956,3.956,0,0,0,1.312-.3,10.741,10.741,0,0,0,3-1.9c.085-.065.155-.173.277-.166a.918.918,0,0,1-.111.171,9.343,9.343,0,0,1-2.487,2.146,3.934,3.934,0,0,1-1.282.47,1.923,1.923,0,0,1-1.1-.261,1.532,1.532,0,0,1-.839-.865,1.824,1.824,0,0,1,.219-1.114A4.49,4.49,0,0,1,4.233,59.11,9.675,9.675,0,0,1,7.1,57.511Z" transform="translate(-2.853 -57.064)" stroke="#4d4d4d" stroke-width="0.4"/>
        <path id="Path_27169" data-name="Path 27169" d="M467.254,70.875a.973.973,0,0,1,.564.426,1.6,1.6,0,0,1,.309.553c-.219.338-.479.652-.713.981q-.64.867-1.277,1.735a7.9,7.9,0,0,0,1.356-.056c.218-.022.426-.106.643-.116-.069.114-.21.145-.324.2a6.645,6.645,0,0,1-2.009.421c-.212.282-.421.566-.633.848a6.046,6.046,0,0,1,.146,2.844,6.43,6.43,0,0,1-1.861,3.548,1.894,1.894,0,0,1-1.085.591,1.624,1.624,0,0,1-.8-.43.917.917,0,0,1-.371-.774,6.318,6.318,0,0,1,.658-1.946,34.679,34.679,0,0,1,1.818-3.2,4.082,4.082,0,0,1-.389.421,17,17,0,0,1-1.48,1.39,2.52,2.52,0,0,1-.769.486,1.155,1.155,0,0,1-.751-.591c-.151-.249.049-.512.162-.734.55-.931,1.262-1.763,1.874-2.655a1.856,1.856,0,0,0,.288-.617c.023-.078-.029-.146-.066-.21a.787.787,0,0,1,.5.342,1.723,1.723,0,0,1,.265.422c.055.108-.038.209-.092.3a24.712,24.712,0,0,0-1.946,2.715c-.049.118-.161.249-.089.378a6.228,6.228,0,0,0,1.024-.7c.268-.2.514-.418.772-.627.391-.328.786-.654,1.146-1.014.171-.216.322-.446.492-.663a.616.616,0,0,0-.252-.212c-.1-.036-.215-.113-.182-.229a1.38,1.38,0,0,1,.413-.587,3.532,3.532,0,0,0,.6.257c.435-.573.86-1.155,1.281-1.736a8.939,8.939,0,0,0,.766-1.226.5.5,0,0,0,.01-.547m-4.509,9.14a14.138,14.138,0,0,0-.869,2.047c-.022.107-.081.284.053.339a.747.747,0,0,0,.426-.138,5.685,5.685,0,0,0,1.408-1.384A7.174,7.174,0,0,0,465,78.305a4.666,4.666,0,0,0,0-2.22,35.039,35.039,0,0,0-2.265,3.923Z" transform="translate(-441.496 -70.331)" stroke="#4d4d4d" stroke-width="0.4"/>
        <path id="Path_27170" data-name="Path 27170" d="M614.971,70.87a.952.952,0,0,1,.547.412,1.653,1.653,0,0,1,.324.573c-.23.356-.5.689-.747,1.034q-.574.782-1.144,1.566c-.7.973-1.448,1.914-2.1,2.918a4.983,4.983,0,0,0-.355.639.193.193,0,0,0,0,.162,4.115,4.115,0,0,0,.843-.555c.522-.384,1-.814,1.5-1.228.265-.219.5-.474.768-.685a.086.086,0,0,1,0,.134c-.323.391-.669.765-1.028,1.127a16.693,16.693,0,0,1-1.483,1.4,2.4,2.4,0,0,1-.74.468,1.008,1.008,0,0,1-.594-.371.748.748,0,0,1-.217-.43,1.487,1.487,0,0,1,.21-.495c.179-.323.384-.632.59-.939a24.576,24.576,0,0,1-1.961,1.659,3.044,3.044,0,0,1-1.016.567.949.949,0,0,1-.518-.318.988.988,0,0,1-.351-.832,2.414,2.414,0,0,1,.486-.942,15.429,15.429,0,0,1-1.938,1.4,4.461,4.461,0,0,1-1.693.7,1.3,1.3,0,0,1-.733-.365,1.478,1.478,0,0,1-.477-.685,1.387,1.387,0,0,1,.218-.851,8.655,8.655,0,0,1-.7.72c-.326.289-.638.595-.989.855a1.642,1.642,0,0,1-.56.326.851.851,0,0,1-.469-.243,1.157,1.157,0,0,1-.328-.461.613.613,0,0,1,.095-.417,13.473,13.473,0,0,1,1.11-1.67c.284-.382.571-.763.844-1.155a2.014,2.014,0,0,0,.322-.673c.022-.078-.031-.146-.067-.211a.79.79,0,0,1,.5.343,1.672,1.672,0,0,1,.272.438c.047.109-.049.207-.1.3a25.228,25.228,0,0,0-1.922,2.689c-.055.127-.17.264-.111.407a3.707,3.707,0,0,0,.756-.491c.625-.463,1.211-.973,1.8-1.48a11.443,11.443,0,0,1,1.516-1.329,5.062,5.062,0,0,1,1.808-.866,1.133,1.133,0,0,1,1.328,1.034.911.911,0,0,1-.278.365,7.038,7.038,0,0,1-1.912,1.131,4.959,4.959,0,0,1-1.829.418,2.492,2.492,0,0,0-.5,1.111c-.016.149.164.195.285.172a4.959,4.959,0,0,0,1.531-.542,17.346,17.346,0,0,0,2.041-1.168,8.959,8.959,0,0,0,1.1-.82,10.477,10.477,0,0,1,1.511-1.173,3.656,3.656,0,0,1,1.451-.568,1.147,1.147,0,0,1,.965.568c.635-.865,1.277-1.727,1.852-2.63a2.318,2.318,0,0,0,.36-.8.357.357,0,0,0-.08-.243m-3.288,3.714a6.847,6.847,0,0,0-1.574,1.188,12.671,12.671,0,0,0-1.624,1.879.9.9,0,0,0-.218.534.627.627,0,0,0,.291-.066,10.1,10.1,0,0,0,1.52-.888,9.308,9.308,0,0,0,1.771-1.51c.2-.257.388-.516.57-.782a1.278,1.278,0,0,0,.173-.329c.026-.122-.107-.224-.223-.215a1.686,1.686,0,0,0-.685.19m-4.633.15a6.812,6.812,0,0,0-1.045.713,12.139,12.139,0,0,0-1.353,1.277,5.564,5.564,0,0,0,1.6-.676,6.945,6.945,0,0,0,1.459-1.1,1.033,1.033,0,0,0,.24-.37c.008-.075-.073-.117-.14-.1a1.8,1.8,0,0,0-.763.26Z" transform="translate(-575.775 -70.326)" stroke="#4d4d4d" stroke-width="0.4"/>
        <path id="Path_27171" data-name="Path 27171" d="M534.658,91.24a1.053,1.053,0,0,1,.69.462,1.133,1.133,0,0,1,.227.469.825.825,0,0,1-.207.25c-.294.259-.612.491-.927.725-.082.088-.266-.018-.2-.125a4.621,4.621,0,0,0,.544-1.434.351.351,0,0,0-.128-.346Z" transform="translate(-512.497 -89.896)" stroke="#4d4d4d" stroke-width="0.4"/>
        <path id="Path_27172" data-name="Path 27172" d="M674.5,91.24a1.054,1.054,0,0,1,.69.463,1.125,1.125,0,0,1,.228.473,1,1,0,0,1-.23.267c-.29.25-.6.478-.908.707-.08.068-.179,0-.223-.072a4.8,4.8,0,0,0,.572-1.5.35.35,0,0,0-.128-.341Z" transform="translate(-646.607 -89.896)" stroke="#4d4d4d" stroke-width="0.4"/>
        <path id="Path_27173" data-name="Path 27173" d="M263.582,147.645c.118-.05.264-.139.382-.041a.938.938,0,0,1,.156,1.263.458.458,0,0,0-.172-.335.893.893,0,0,0-.78-.023,4.39,4.39,0,0,0-1.353.8,9.4,9.4,0,0,0-2.057,2.18,3.4,3.4,0,0,0-.371.73.319.319,0,0,0,.011.2h-.182a1.5,1.5,0,0,1-.477-.686,1.04,1.04,0,0,1,.228-.575c.278-.42.571-.832.866-1.24a14.745,14.745,0,0,1-1.7,1.377,12.872,12.872,0,0,1-1.334.821,3.48,3.48,0,0,1-1.085.389.912.912,0,0,1-.557-.182,1.86,1.86,0,0,1-.669-.73.983.983,0,0,1,.067-.777,5.182,5.182,0,0,1,1.381-1.725,7.315,7.315,0,0,1,1.815-1.184,2.445,2.445,0,0,1,.933-.243,1.172,1.172,0,0,1,1.051.821.379.379,0,0,1-.015.332,2.453,2.453,0,0,1-.644.593,7.155,7.155,0,0,1-1.406.761,5.5,5.5,0,0,1-1.924.461,3.013,3.013,0,0,0-.468.912c-.02.1-.064.208,0,.3a.387.387,0,0,0,.314.069,5.119,5.119,0,0,0,1.428-.516,17.412,17.412,0,0,0,3.007-1.848,2.658,2.658,0,0,0,.51-.612,3.314,3.314,0,0,0,.582-1.01.271.271,0,0,0-.068-.249.7.7,0,0,1,.411.23,2.1,2.1,0,0,1,.372.514.173.173,0,0,1,0,.192c-.243.4-.564.756-.838,1.138a13.414,13.414,0,0,1,1.454-1.32,7.716,7.716,0,0,1,1.139-.79m-5.847,1.141a11.408,11.408,0,0,0-1.792,1.613,7.037,7.037,0,0,0,2.27-1.1,3.8,3.8,0,0,0,.99-.935c.048-.064.072-.188-.033-.212a2.891,2.891,0,0,0-1.433.64Z" transform="translate(-244.126 -144.023)" stroke="#4d4d4d" stroke-width="0.4"/>
      </g>
    </g>
  </g>
</svg>
